<?xml version="1.0" encoding="UTF-8"?>
<svg id="Layer_2" data-name="Layer 2" xmlns="http://www.w3.org/2000/svg" xmlns:xlink="http://www.w3.org/1999/xlink" viewBox="0 0 25.84 21.51">
  <defs>
    <style>
      .cls-1, .cls-2, .cls-3 {
        fill: none;
      }

      .cls-4 {
        clip-path: url(#clippath-1);
      }

      .cls-5 {
        fill: #fff;
      }

      .cls-2 {
        stroke-width: .37px;
      }

      .cls-2, .cls-3 {
        stroke: #b67af0;
        stroke-miterlimit: 10;
      }

      .cls-3 {
        stroke-width: .18px;
      }

      .cls-6 {
        fill: #d8b0ff;
      }

      .cls-7 {
        fill: #fffbec;
      }

      .cls-8 {
        fill: #b67af0;
      }

      .cls-9 {
        clip-path: url(#clippath);
      }
    </style>
    <clipPath id="clippath">
      <path class="cls-1" d="M8.58,5.42s-1.7.42-2.99,2.24-1.84,3.68-1.84,3.68c0,0-2.59-.15-3.56-2.59s2.24-3.8,2.39-3.83,2.59-.08,2.59-.08"/>
    </clipPath>
    <clipPath id="clippath-1">
      <path class="cls-1" d="M17.19,5.55s1.71.36,3.06,2.15,1.95,3.62,1.95,3.62c0,0,2.58-.23,3.48-2.69.9-2.46-2.36-3.73-2.5-3.76s-2.59,0-2.59,0"/>
    </clipPath>
  </defs>
  <g id="Layer_1-2" data-name="Layer 1">
    <g>
      <g>
        <path class="cls-2" d="M21.18,17.89c-.15.24-.33.47-.53.69h0c-2.8,3.02-10.22,3.93-14.24.76-.03-.02-.06-.05-.09-.08-.14-.11-.28-.23-.41-.36-3.32-3.16-2.65-7.27-1.23-9.89.35-.65.75-1.21,1.15-1.64,2.66-2.87,7.85-3.37,12.16-1.36,1.21.56,2.18,1.46,2.89,2.53,1.82,2.74,1.97,6.68.3,9.34Z"/>
        <path class="cls-6" d="M10.5,18.27s-.21,1.36,1.15,1.67,2.86.12,3.37-.61.21-1.32.21-1.32c0,0-.7.35-1.22.19s-.98-.55-1.15-1.01c0,0-.82,1.55-2.36,1.07Z"/>
        <ellipse class="cls-8" cx="18.78" cy="16.31" rx="1.05" ry="1.4" transform="translate(1.82 34.51) rotate(-87.98)"/>
        <ellipse class="cls-8" cx="7.17" cy="16.63" rx="1.05" ry="1.4" transform="translate(-9.71 23.21) rotate(-87.98)"/>
        <g>
          <path class="cls-8" d="M12.6,7.9c-.03.12-.04.27-.14.4-.09.14-.29.18-.44.14-.31-.15-.42-.42-.46-.71-.04-.32.32-.64.67-.57.17.03.33.16.37.32.05.16.02.3,0,.42ZM12.57,7.89c.02-.12-.07-.23-.16-.28-.1-.04-.17-.06-.24-.07-.14-.02-.3.03-.41.21-.05.09-.05.22.03.3.07.09.2.09.28.08l.26-.02c.1-.01.23-.09.24-.21Z"/>
          <path class="cls-8" d="M9.44,6.39c-.02.07,0,.17-.07.28-.05.11-.2.14-.3.11-.22-.13-.25-.3-.31-.49-.05-.22.2-.47.46-.41.12.03.23.12.25.24.02.12-.02.21-.03.29ZM9.41,6.39c.01-.07-.07-.14-.13-.14-.07,0-.09,0-.12,0-.04,0-.1-.03-.19.05-.04.04-.05.12,0,.16.04.05.12.02.16,0,.04-.01.05-.01.12,0,.06.02.16-.02.16-.09Z"/>
          <path class="cls-8" d="M15.12,7.77c-.02.07,0,.17-.07.28-.05.11-.2.14-.3.11-.22-.13-.25-.3-.31-.49-.05-.22.2-.47.46-.41.12.03.23.12.25.24.02.12-.02.21-.03.29ZM15.09,7.76c.01-.07-.07-.14-.13-.14-.07,0-.09,0-.12,0-.04,0-.1-.03-.19.05-.04.04-.05.12,0,.16.04.05.12.02.16,0,.04-.01.05-.01.12,0,.06.02.16-.02.16-.09Z"/>
          <path class="cls-8" d="M11.73,5.94c-.02.07,0,.17-.07.28-.05.11-.2.14-.3.11-.22-.13-.25-.3-.31-.49-.05-.22.2-.47.46-.41.12.03.23.12.25.24.02.12-.02.21-.03.29ZM11.69,5.93c.01-.07-.07-.14-.13-.14-.07,0-.09,0-.12,0-.04,0-.1-.03-.19.05-.04.04-.05.12,0,.16.04.05.12.02.16,0,.04-.01.05-.01.12,0,.06.02.16-.02.16-.09Z"/>
          <path class="cls-8" d="M18.29,7.14c-.02.07,0,.17-.07.28-.05.11-.2.14-.3.11-.22-.13-.25-.3-.31-.49-.05-.22.2-.47.46-.41.12.03.23.12.25.24.02.12-.02.21-.03.29ZM18.25,7.14c.01-.07-.07-.14-.13-.14-.07,0-.09,0-.12,0-.04,0-.1-.03-.19.05-.04.04-.05.12,0,.16.04.05.12.02.16,0,.04-.01.05-.01.12,0,.06.02.16-.02.16-.09Z"/>
          <path class="cls-8" d="M12.45,9.41c-.02.07,0,.17-.07.28-.05.11-.2.14-.3.11-.22-.13-.25-.3-.31-.49-.05-.22.2-.47.46-.41.12.03.23.12.25.24.02.12-.02.21-.03.29ZM12.41,9.4c.01-.07-.07-.14-.13-.14-.07,0-.09,0-.12,0-.04,0-.1-.03-.19.05-.04.04-.05.12,0,.16.04.05.12.02.16,0,.04-.01.05-.01.12,0,.06.02.16-.02.16-.09Z"/>
          <path class="cls-8" d="M8.48,10.01c-.02.07,0,.17-.07.28-.05.11-.2.14-.3.11-.22-.13-.25-.3-.31-.49-.05-.22.2-.47.46-.41.12.03.23.12.25.24.02.12-.02.21-.03.29ZM8.44,10c.01-.07-.07-.14-.13-.14-.07,0-.09,0-.12,0-.04,0-.1-.03-.19.05-.04.04-.05.12,0,.16.04.05.12.02.16,0,.04-.01.05-.01.12,0,.06.02.16-.02.16-.09Z"/>
          <path class="cls-8" d="M16.3,6.45c-.03.12-.04.27-.14.4-.09.14-.29.18-.44.14-.31-.15-.42-.42-.46-.71-.04-.32.32-.64.67-.57.17.03.33.16.37.32.05.16.02.3,0,.42ZM16.26,6.44c.02-.12-.07-.23-.16-.28-.1-.04-.17-.06-.24-.07-.14-.02-.3.03-.41.21-.05.09-.05.22.03.3.07.09.2.09.28.08l.26-.02c.1-.01.23-.09.24-.21Z"/>
          <path class="cls-8" d="M7.77,6.82c-.03.12-.04.27-.14.4-.09.14-.29.18-.44.14-.31-.15-.42-.42-.46-.71-.04-.32.32-.64.67-.57.17.03.33.16.37.32.05.16.02.3,0,.42ZM7.73,6.82c.02-.12-.07-.23-.16-.28-.1-.04-.17-.06-.24-.07-.14-.02-.3.03-.41.21-.05.09-.05.22.03.3.07.09.2.09.28.08l.26-.02c.1-.01.23-.09.24-.21Z"/>
          <path class="cls-8" d="M16.88,9.51c-.03.12-.04.27-.14.4-.09.14-.29.18-.44.14-.31-.15-.42-.42-.46-.71-.04-.32.32-.64.67-.57.17.03.33.16.37.32.05.16.02.3,0,.42ZM16.85,9.51c.02-.12-.07-.23-.16-.28-.1-.04-.17-.06-.24-.07-.14-.02-.3.03-.41.21-.05.09-.05.22.03.3.07.09.2.09.28.08l.26-.02c.1-.01.23-.09.24-.21Z"/>
          <path class="cls-8" d="M9.97,9.42c-.03.12-.04.27-.14.4-.09.14-.29.18-.44.14-.31-.15-.42-.42-.46-.71-.04-.32.32-.64.67-.57.17.03.33.16.37.32.05.16.02.3,0,.42ZM9.93,9.41c.02-.12-.07-.23-.16-.28-.1-.04-.17-.06-.24-.07-.14-.02-.3.03-.41.21-.05.09-.05.22.03.3.07.09.2.09.28.08l.26-.02c.1-.01.23-.09.24-.21Z"/>
          <path class="cls-8" d="M5.83,7.19c0,.16-.19.47-.43.35-.19-.13-.31-.25-.37-.49-.02-.29.31-.43.52-.38.26.03.35.36.28.52ZM5.79,7.18c.01-.08-.08-.13-.15-.12-.07,0-.12,0-.16,0-.09,0-.17-.02-.25.03-.04.03-.04.12.03.15.05.04.14.01.19,0,.06,0,.09-.01.16.02.06.02.17,0,.18-.07Z"/>
          <path class="cls-8" d="M10.71,7.1c0,.16-.19.47-.43.35-.19-.13-.31-.25-.37-.49-.02-.29.31-.43.52-.38.26.03.35.36.28.52ZM10.67,7.1c.01-.08-.08-.13-.15-.12-.07,0-.12,0-.16,0-.09,0-.17-.02-.25.03-.04.03-.04.12.03.15.05.04.14.01.19,0,.06,0,.09-.01.16.02.06.02.17,0,.18-.07Z"/>
          <path class="cls-8" d="M19.81,7.02c0,.16-.19.47-.43.35-.19-.13-.31-.25-.37-.49-.02-.29.31-.43.52-.38.26.03.35.36.28.52ZM19.78,7.02c.01-.08-.08-.13-.15-.12-.07,0-.12,0-.16,0-.09,0-.17-.02-.25.03-.04.03-.04.12.03.15.05.04.14.01.19,0,.06,0,.09-.01.16.02.06.02.17,0,.18-.07Z"/>
          <path class="cls-8" d="M13.58,6.08c-.16,0-.46-.21-.33-.44.14-.19.27-.3.5-.35.29,0,.42.33.36.53-.04.25-.38.33-.53.26ZM13.59,6.04c.08.02.13-.08.13-.14,0-.07,0-.12,0-.16.01-.09.03-.17-.01-.25-.03-.04-.12-.04-.15.02-.05.05-.02.14,0,.19,0,.06,0,.09-.03.16-.03.06-.02.17.07.18Z"/>
          <path class="cls-8" d="M14.28,9.8c-.16,0-.46-.21-.33-.44.14-.19.27-.3.5-.35.29,0,.42.33.36.53-.04.25-.38.33-.53.26ZM14.28,9.76c.08.02.13-.08.13-.14,0-.07,0-.12,0-.16.01-.09.03-.17-.01-.25-.03-.04-.12-.04-.15.02-.05.05-.02.14,0,.19,0,.06,0,.09-.03.16-.03.06-.02.17.07.18Z"/>
        </g>
        <path class="cls-8" d="M17.23,2.75s.17-1.5-1.01-1.62-1.06,1.79-1.16,1.83-1.61-1.45-2.95-.24-.11,3.02.94,3.89c0,0-1.29-.02-2.22-1.79s.26-3.69,1.62-3.75,2.17.86,2.17.86c0,0,.04-2.24,1.94-1.9s1.27,2.21.67,2.71Z"/>
        <g class="cls-9">
          <g>
            <path class="cls-2" d="M4.95,11.1s-2.64.2-3.84-1.93.45-3.64,1.73-3.27,2.86,1.79,4.29,1.6-2.18,3.59-2.18,3.59Z"/>
            <path class="cls-8" d="M3.03,6.16s-.42-.22-.44-.01.3.9.3.9c0,0-.44-.02-.39.18s.55.41.55.41c0,0-.49.46-.42.68s.53.1.53.1c0,0-.09.37.05.46s.33-.08.33-.08c0,0-.16.34-.02.45s.64-.17.64-.17c0,0-.08.61.15.64s.45-.31.45-.31c0,0,.64.58.91.46s.3-.65.3-.65c0,0,.52.47,1,.48s.47-.59.47-.59c0,0,.54-.13.64-.38s.04-.4.04-.4c0,0-.77.33-2.51-.3s-2.57-1.87-2.57-1.87Z"/>
            <path class="cls-8" d="M10.54,5.03c-1.14.46-2.3.83-3.48,1.14-1.18.3-2.46.52-3.66.1-.15-.05-.29-.11-.43-.17-.07-.03-.14-.06-.2-.08-.03-.01-.06-.02-.08-.02-.01,0-.01,0-.01,0,0,0,0,.02.07-.06.01-.13.03.02.08.04.04.05.09.1.15.15.11.1.21.2.33.29.46.38.97.7,1.49.99,1.04.57,2.19,1,3.41.9v.04c-1.2.35-2.51-.02-3.6-.58-.55-.29-1.06-.65-1.53-1.07-.12-.1-.23-.21-.34-.33-.05-.06-.11-.12-.16-.19-.02-.03-.05-.07-.07-.11-.01-.05-.08-.08-.03-.24.09-.12.14-.09.17-.1.04,0,.08,0,.1,0,.06.01.1.03.14.05.08.04.14.08.21.11.13.08.26.15.4.21.54.25,1.15.35,1.75.28.61-.05,1.16-.3,1.74-.49,1.17-.37,2.35-.67,3.56-.88v.04Z"/>
          </g>
        </g>
        <g class="cls-4">
          <g>
            <path class="cls-2" d="M20.98,11.12s2.65.12,3.78-2.04c1.13-2.16-.56-3.62-1.82-3.21s-2.8,1.88-4.24,1.73,2.28,3.53,2.28,3.53Z"/>
            <path class="cls-8" d="M22.75,6.13s.41-.23.44-.02-.27.91-.27.91c0,0,.44-.03.4.17s-.54.42-.54.42c0,0,.51.44.44.67s-.52.11-.52.11c0,0,.1.37-.04.46s-.33-.07-.33-.07c0,0,.17.33.03.45s-.64-.16-.64-.16c0,0,.1.61-.13.64s-.46-.29-.46-.29c0,0-.62.6-.89.49s-.32-.64-.32-.64c0,0-.51.49-.98.51s-.49-.57-.49-.57c0,0-.55-.12-.65-.36s-.05-.4-.05-.4c0,0,.78.3,2.5-.38s2.52-1.95,2.52-1.95Z"/>
            <path class="cls-8" d="M15.22,5.18c1.21.18,2.4.45,3.58.78.59.17,1.15.4,1.75.44.6.05,1.21-.06,1.74-.33.13-.07.26-.14.39-.22.07-.04.13-.08.21-.12.03-.02.08-.04.14-.05.02,0,.06-.01.1,0,.03,0,.08-.02.17.1.05.16-.02.2-.03.24-.02.04-.05.08-.07.12-.05.07-.1.13-.15.19-.1.12-.21.23-.33.34-.45.43-.95.8-1.5,1.12-1.07.6-2.37,1.01-3.59.69v-.04c1.23.07,2.37-.4,3.39-1,.51-.3,1.01-.64,1.46-1.03.11-.1.22-.2.32-.3.05-.05.1-.1.14-.16.05-.02.07-.17.08-.05.07.08.08.05.07.06,0,0,0,0-.01,0-.02,0-.05,0-.08.03-.06.02-.13.06-.2.09-.14.07-.28.13-.43.19-1.19.46-2.47.27-3.66,0-1.19-.27-2.35-.61-3.51-1.04v-.04Z"/>
          </g>
        </g>
      </g>
      <g>
        <path class="cls-7" d="M14.04,18.17s.35.67.61.58.25-.68.25-.68c0,0-.55.15-.86.09Z"/>
        <path class="cls-7" d="M10.85,18.29s.35.67.61.58.25-.68.25-.68c0,0-.55.15-.86.09Z"/>
        <path class="cls-3" d="M9.92,17.35s-.08.86,1.08,1.02,1.9-1.3,1.9-1.3c0,0,.2,1.09,1.44,1.17s1.5-.97,1.5-.97"/>
        <path class="cls-8" d="M12.85,17.09s-1.03-.12-.99-.91,1.5-.79,1.91-.26-.31,1.21-.92,1.17Z"/>
        <path class="cls-8" d="M14.49,17.07c.12,0,.12-.18,0-.18s-.12.18,0,.18h0Z"/>
        <path class="cls-8" d="M10.73,17.71c.12,0,.12-.18,0-.18s-.12.18,0,.18h0Z"/>
        <path class="cls-8" d="M11.9,17.55c.12,0,.12-.18,0-.18s-.12.18,0,.18h0Z"/>
        <path class="cls-8" d="M13.73,17.33c.12,0,.12-.18,0-.18s-.12.18,0,.18h0Z"/>
        <path class="cls-8" d="M14.6,17.73c.12,0,.12-.18,0-.18s-.12.18,0,.18h0Z"/>
        <path class="cls-8" d="M11.03,17.16c.12,0,.12-.18,0-.18s-.12.18,0,.18h0Z"/>
      </g>
      <g>
        <g>
          <path class="cls-8" d="M16.24,15.15c.69.11,2.27-.17,2.65-.88s-.07-1.97-1.65-2-2.67,2.6-1,2.88Z"/>
          <circle class="cls-5" cx="16.22" cy="13.77" r=".54"/>
          <circle class="cls-5" cx="18.35" cy="13.56" r=".3"/>
        </g>
        <g>
          <path class="cls-8" d="M9.39,15.34c-.69.13-2.27-.11-2.67-.81s.02-1.97,1.6-2.04,2.73,2.53,1.07,2.85Z"/>
          <circle class="cls-5" cx="9.37" cy="13.97" r=".54"/>
          <circle class="cls-5" cx="7.23" cy="13.81" r=".3"/>
        </g>
      </g>
    </g>
  </g>
</svg>