<?xml version="1.0" encoding="UTF-8"?>
<svg id="Layer_2" data-name="Layer 2" xmlns="http://www.w3.org/2000/svg" xmlns:xlink="http://www.w3.org/1999/xlink" viewBox="0 0 16.57 16.57">
  <defs>
    <style>
      .cls-1, .cls-2, .cls-3, .cls-4 {
        fill: none;
      }

      .cls-2 {
        stroke-width: .1px;
      }

      .cls-2, .cls-3, .cls-4 {
        stroke: #b67af0;
        stroke-miterlimit: 10;
      }

      .cls-5 {
        clip-path: url(#clippath-1);
      }

      .cls-6 {
        fill: #fff;
      }

      .cls-3 {
        stroke-width: .42px;
      }

      .cls-4 {
        stroke-width: .21px;
      }

      .cls-7 {
        fill: #d8b0ff;
      }

      .cls-8 {
        fill: #fffbec;
      }

      .cls-9 {
        fill: #b67af0;
      }

      .cls-10 {
        clip-path: url(#clippath);
      }
    </style>
    <clipPath id="clippath">
      <path class="cls-1" d="M5.82,4.98s-.95.23-1.67,1.25-1.03,2.06-1.03,2.06c0,0-1.45-.09-1.99-1.45s1.25-2.12,1.33-2.14,1.45-.05,1.45-.05"/>
    </clipPath>
    <clipPath id="clippath-1">
      <path class="cls-1" d="M10.64,5.05s.96.2,1.71,1.2,1.09,2.03,1.09,2.03c0,0,1.44-.13,1.95-1.51s-1.32-2.09-1.4-2.1-1.45,0-1.45,0"/>
    </clipPath>
  </defs>
  <g id="Layer_1-2" data-name="Layer 1">
    <g>
      <circle class="cls-3" cx="8.28" cy="8.28" r="8.07"/>
      <g>
        <path class="cls-4" d="M12.87,11.95c-.08.13-.18.26-.3.38h0c-1.57,1.69-5.72,2.2-7.96.42-.02-.01-.03-.03-.05-.04-.08-.06-.16-.13-.23-.2-1.85-1.77-1.48-4.07-.69-5.53.19-.37.42-.68.64-.91,1.49-1.61,4.39-1.88,6.8-.76.68.31,1.22.81,1.62,1.42,1.02,1.54,1.1,3.74.17,5.22Z"/>
        <path class="cls-7" d="M6.9,12.17s-.12.76.64.94,1.6.07,1.88-.34.12-.74.12-.74c0,0-.39.2-.68.11s-.55-.31-.64-.57c0,0-.46.87-1.32.6Z"/>
        <ellipse class="cls-9" cx="11.53" cy="11.07" rx=".59" ry=".78" transform="translate(.06 22.2) rotate(-87.98)"/>
        <ellipse class="cls-9" cx="5.03" cy="11.25" rx=".59" ry=".78" transform="translate(-6.39 15.88) rotate(-87.98)"/>
        <g>
          <path class="cls-9" d="M8.07,6.36c0,.12-.12.37-.33.3-.17-.08-.25-.23-.26-.4-.02-.17.18-.36.38-.31.22.03.25.29.21.41ZM8.05,6.36c0-.16-.17-.18-.22-.2-.08,0-.17.01-.23.12-.07.11.07.25.17.21.07-.02.24.02.28-.13Z"/>
          <path class="cls-9" d="M6.31,5.52c.01.07-.05.27-.21.21-.12-.08-.15-.17-.17-.28-.02-.12.11-.27.26-.23.17.02.16.23.12.29ZM6.29,5.52c0-.1-.14-.07-.14-.07-.02,0-.06-.02-.11.03-.06.06.04.14.09.09.01-.03.12.05.16-.05Z"/>
          <path class="cls-9" d="M9.48,6.29c.01.07-.05.27-.21.21-.12-.08-.15-.17-.17-.28-.02-.12.11-.27.26-.23.17.02.16.23.12.29ZM9.46,6.29c0-.1-.14-.07-.14-.07-.02,0-.06-.02-.11.03-.06.06.04.14.09.09.01-.03.12.05.16-.05Z"/>
          <path class="cls-9" d="M7.58,5.27c.01.07-.05.27-.21.21-.12-.08-.15-.17-.17-.28-.02-.12.11-.27.26-.23.17.02.16.23.12.29ZM7.56,5.27c0-.1-.14-.07-.14-.07-.02,0-.06-.02-.11.03-.06.06.04.14.09.09.01-.03.12.05.16-.05Z"/>
          <path class="cls-9" d="M11.25,5.94c.01.07-.05.27-.21.21-.12-.08-.15-.17-.17-.28-.02-.12.11-.27.26-.23.17.02.16.23.12.29ZM11.23,5.94c0-.1-.14-.07-.14-.07-.02,0-.06-.02-.11.03-.06.06.04.14.09.09.01-.03.12.05.16-.05Z"/>
          <path class="cls-9" d="M7.99,7.21c.01.07-.05.27-.21.21-.12-.08-.15-.17-.17-.28-.02-.12.11-.27.26-.23.17.02.16.23.12.29ZM7.97,7.21c0-.1-.14-.07-.14-.07-.02,0-.06-.02-.11.03-.06.06.04.14.09.09.01-.03.12.05.16-.05Z"/>
          <path class="cls-9" d="M5.77,7.54c.01.07-.05.27-.21.21-.12-.08-.15-.17-.17-.28-.02-.12.11-.27.26-.23.17.02.16.23.12.29ZM5.75,7.54c0-.1-.14-.07-.14-.07-.02,0-.06-.02-.11.03-.06.06.04.14.09.09.01-.03.12.05.16-.05Z"/>
          <path class="cls-9" d="M10.14,5.55c0,.12-.12.37-.33.3-.17-.08-.25-.23-.26-.4-.02-.17.18-.36.38-.31.22.03.25.29.21.41ZM10.12,5.55c0-.16-.17-.18-.22-.2-.08,0-.17.01-.23.12-.07.11.07.25.17.21.07-.02.24.02.28-.13Z"/>
          <path class="cls-9" d="M5.37,5.77c0,.12-.12.37-.33.3-.17-.08-.25-.23-.26-.4-.02-.17.18-.36.38-.31.22.03.25.29.21.41ZM5.35,5.76c0-.16-.17-.18-.22-.2-.08,0-.17.01-.23.12-.07.11.07.25.17.21.07-.02.24.02.28-.13Z"/>
          <path class="cls-9" d="M10.47,7.27c0,.12-.12.37-.33.3-.17-.08-.25-.23-.26-.4-.02-.17.18-.36.38-.31.22.03.25.29.21.41ZM10.45,7.27c0-.16-.17-.18-.22-.2-.08,0-.17.01-.23.12-.07.11.07.25.17.21.07-.02.24.02.28-.13Z"/>
          <path class="cls-9" d="M6.6,7.21c0,.12-.12.37-.33.3-.17-.08-.25-.23-.26-.4-.02-.17.18-.36.38-.31.22.03.25.29.21.41ZM6.58,7.21c0-.16-.17-.18-.22-.2-.08,0-.17.01-.23.12-.07.11.07.25.17.21.07-.02.24.02.28-.13Z"/>
          <path class="cls-9" d="M4.28,5.97c0,.09-.11.26-.24.2-.1-.07-.18-.14-.21-.27,0-.16.17-.25.29-.21.14,0,.19.2.16.29ZM4.26,5.97c0-.11-.15-.05-.17-.07-.05,0-.1-.02-.14.02-.05.06.06.13.12.08.04-.03.15.07.19-.03Z"/>
          <path class="cls-9" d="M7.01,5.92c0,.09-.11.26-.24.2-.1-.07-.18-.14-.21-.27,0-.16.17-.25.29-.21.14,0,.19.2.16.29ZM6.99,5.92c0-.11-.15-.05-.17-.07-.05,0-.1-.02-.14.02-.05.06.06.13.12.08.04-.03.15.07.19-.03Z"/>
          <path class="cls-9" d="M12.11,5.88c0,.09-.11.26-.24.2-.1-.07-.18-.14-.21-.27,0-.16.17-.25.29-.21.14,0,.19.2.16.29ZM12.09,5.87c0-.11-.15-.05-.17-.07-.05,0-.1-.02-.14.02-.05.06.06.13.12.08.04-.03.15.07.19-.03Z"/>
          <path class="cls-9" d="M8.62,5.35c-.09,0-.25-.12-.19-.25.08-.1.15-.18.28-.2.16,0,.24.18.2.3-.01.14-.21.18-.29.15ZM8.63,5.33c.11,0,.06-.14.08-.17,0-.05.02-.1-.01-.14-.05-.05-.13.05-.09.12.03.04-.08.14.02.19Z"/>
          <path class="cls-9" d="M9.01,7.43c-.09,0-.25-.12-.19-.25.08-.1.15-.18.28-.2.16,0,.24.18.2.3-.01.14-.21.18-.29.15ZM9.01,7.41c.11,0,.06-.14.08-.17,0-.05.02-.1-.01-.14-.05-.05-.13.05-.09.12.03.04-.08.14.02.19Z"/>
        </g>
        <path class="cls-9" d="M10.66,3.48s.09-.84-.57-.9-.6,1-.65,1.02-.9-.81-1.65-.13-.06,1.69.52,2.18c0,0-.72,0-1.24-1s.14-2.06.91-2.1,1.21.48,1.21.48c0,0,.02-1.25,1.09-1.06s.71,1.23.38,1.52Z"/>
        <g class="cls-10">
          <g>
            <path class="cls-4" d="M3.79,8.16s-1.48.11-2.15-1.08.25-2.03.97-1.83,1.6,1,2.4.9-1.22,2.01-1.22,2.01Z"/>
            <path class="cls-9" d="M2.72,5.39s-.23-.12-.25,0,.17.5.17.5c0,0-.25-.01-.22.1s.31.23.31.23c0,0-.28.26-.23.38s.29.05.29.05c0,0-.05.21.03.26s.18-.04.18-.04c0,0-.09.19-.01.25s.36-.1.36-.1c0,0-.04.34.08.36s.25-.17.25-.17c0,0,.36.32.51.26s.17-.36.17-.36c0,0,.29.26.56.27s.27-.33.27-.33c0,0,.3-.08.36-.21s.02-.22.02-.22c0,0-.43.18-1.41-.17s-1.44-1.05-1.44-1.05Z"/>
            <path class="cls-9" d="M6.92,4.76c-.64.26-1.29.47-1.94.64-.66.16-1.38.3-2.05.06-.08-.03-.16-.06-.24-.1l-.11-.05s-.1.02-.02-.05c0-.06.08.08.13.11l.19.16c.26.21.54.39.83.56.58.32,1.23.56,1.91.5v.02c-.67.19-1.41-.01-2.01-.33-.31-.16-.6-.36-.86-.6-.07-.06-.13-.12-.19-.19-.05-.09-.14-.08-.15-.3.15-.12.17-.03.22-.03l.12.06.22.12c.3.13.64.2.98.16.34-.03.65-.17.97-.27.65-.2,1.32-.37,1.99-.49v.02Z"/>
          </g>
        </g>
        <g class="cls-5">
          <g>
            <path class="cls-4" d="M12.76,8.17s1.48.07,2.11-1.14-.31-2.03-1.02-1.8-1.57,1.05-2.37.97,1.28,1.97,1.28,1.97Z"/>
            <path class="cls-9" d="M13.75,5.37s.23-.13.25-.01-.15.51-.15.51c0,0,.25-.02.22.09s-.3.24-.3.24c0,0,.28.25.24.37s-.29.06-.29.06c0,0,.06.21-.02.26s-.18-.04-.18-.04c0,0,.09.19.02.25s-.36-.09-.36-.09c0,0,.05.34-.07.36s-.26-.16-.26-.16c0,0-.35.33-.5.27s-.18-.36-.18-.36c0,0-.28.27-.55.29s-.28-.32-.28-.32c0,0-.31-.07-.37-.2s-.03-.22-.03-.22c0,0,.44.17,1.4-.21s1.41-1.09,1.41-1.09Z"/>
            <path class="cls-9" d="M9.54,4.84c.68.1,1.34.25,2,.43.33.1.64.22.98.24.34.03.68-.05.97-.19l.22-.12.12-.07s.07-.09.22.02c0,.23-.09.21-.14.31-.06.07-.12.13-.18.19-.25.24-.53.45-.84.62-.6.34-1.33.56-2.01.39v-.02c.69.05,1.33-.22,1.9-.55.28-.17.56-.36.81-.58l.18-.17c.05-.03.12-.17.13-.12.08.07,0,.01-.02.05l-.11.05c-.08.04-.16.07-.24.11-.66.26-1.38.15-2.05,0-.66-.15-1.32-.34-1.96-.58v-.02Z"/>
          </g>
        </g>
      </g>
      <g>
        <path class="cls-8" d="M8.88,12.11s.19.38.34.33.14-.38.14-.38c0,0-.31.09-.48.05Z"/>
        <path class="cls-8" d="M7.09,12.18s.19.38.34.33.14-.38.14-.38c0,0-.31.09-.48.05Z"/>
        <path class="cls-2" d="M6.57,11.65s-.04.48.61.57,1.06-.73,1.06-.73c0,0,.11.61.8.65s.84-.54.84-.54"/>
        <path class="cls-9" d="M8.21,11.51s-.57-.07-.55-.51.84-.44,1.07-.15-.18.68-.51.66Z"/>
        <path class="cls-9" d="M9.13,11.49c.07,0,.07-.1,0-.1s-.07.1,0,.1h0Z"/>
        <path class="cls-9" d="M7.02,11.85c.07,0,.07-.1,0-.1s-.07.1,0,.1h0Z"/>
        <path class="cls-9" d="M7.68,11.76c.07,0,.07-.1,0-.1s-.07.1,0,.1h0Z"/>
        <path class="cls-9" d="M8.7,11.64c.07,0,.07-.1,0-.1s-.07.1,0,.1h0Z"/>
        <path class="cls-9" d="M9.19,11.86c.07,0,.07-.1,0-.1s-.07.1,0,.1h0Z"/>
        <path class="cls-9" d="M7.2,11.55c.07,0,.07-.1,0-.1s-.07.1,0,.1h0Z"/>
      </g>
      <g>
        <g>
          <path class="cls-9" d="M10.11,10.42c.39.06,1.27-.09,1.48-.49s-.04-1.1-.92-1.12-1.49,1.45-.56,1.61Z"/>
          <circle class="cls-6" cx="10.1" cy="9.65" r=".3"/>
          <circle class="cls-6" cx="11.29" cy="9.53" r=".17"/>
        </g>
        <g>
          <path class="cls-9" d="M6.27,10.53c-.38.07-1.27-.06-1.49-.45s.01-1.1.89-1.14,1.53,1.41.6,1.59Z"/>
          <circle class="cls-6" cx="6.27" cy="9.76" r=".3"/>
          <circle class="cls-6" cx="5.07" cy="9.67" r=".17"/>
        </g>
      </g>
    </g>
  </g>
</svg>