<?xml version="1.0" encoding="UTF-8"?>
<svg id="Layer_2" data-name="Layer 2" xmlns="http://www.w3.org/2000/svg" xmlns:xlink="http://www.w3.org/1999/xlink" viewBox="0 0 58.51 53.79">
  <defs>
    <style>
      .cls-1 {
        fill: #d69783;
      }

      .cls-2 {
        fill: url(#linear-gradient-8);
      }

      .cls-3 {
        fill: url(#linear-gradient-7);
      }

      .cls-4 {
        fill: url(#linear-gradient-5);
      }

      .cls-5 {
        fill: url(#linear-gradient-6);
      }

      .cls-6 {
        fill: url(#linear-gradient-4);
      }

      .cls-7 {
        fill: url(#linear-gradient-3);
      }

      .cls-8 {
        fill: url(#linear-gradient-2);
      }

      .cls-9 {
        fill: #f1c990;
      }

      .cls-10 {
        fill: url(#linear-gradient);
      }

      .cls-11 {
        fill: #b8aba6;
      }

      .cls-12 {
        fill: #141414;
      }

      .cls-13 {
        stroke: #1a1a1a;
        stroke-miterlimit: 10;
        stroke-width: .39px;
      }

      .cls-13, .cls-14 {
        fill: #fff;
      }

      .cls-15 {
        fill: #8c646f;
      }

      .cls-16 {
        fill: #bf7e5c;
      }

      .cls-17 {
        fill: #fffbec;
      }

      .cls-18 {
        fill: #312529;
      }

      .cls-19 {
        fill: #1a1a1a;
      }
    </style>
    <linearGradient id="linear-gradient" x1="24.73" y1="81.32" x2="26.95" y2="98.52" gradientTransform="translate(-6.04 -66.32) rotate(-4.85)" gradientUnits="userSpaceOnUse">
      <stop offset="0" stop-color="#6d4f51"/>
      <stop offset=".42" stop-color="#4d3a3b"/>
      <stop offset="1" stop-color="#1a1a1a"/>
    </linearGradient>
    <linearGradient id="linear-gradient-2" x1="10.58" y1="83.51" x2="12.76" y2="100.34" xlink:href="#linear-gradient"/>
    <linearGradient id="linear-gradient-3" x1="32.53" y1="97.18" x2="38.47" y2="98.78" gradientTransform="translate(-6.04 -66.32) rotate(-4.85)" gradientUnits="userSpaceOnUse">
      <stop offset="0" stop-color="#9fd055"/>
      <stop offset=".16" stop-color="#96ca55"/>
      <stop offset=".41" stop-color="#7fbb55"/>
      <stop offset=".71" stop-color="#5aa456"/>
      <stop offset="1" stop-color="#328a57"/>
    </linearGradient>
    <linearGradient id="linear-gradient-4" x1="-1411.83" y1="372.31" x2="-1405.89" y2="373.91" gradientTransform="translate(-1412.73 297.08) rotate(154.73) scale(1 -1)" xlink:href="#linear-gradient-3"/>
    <linearGradient id="linear-gradient-5" x1="36.18" y1="80.2" x2="38.36" y2="97.03" xlink:href="#linear-gradient"/>
    <linearGradient id="linear-gradient-6" x1="27.11" y1="82.19" x2="25.4" y2="73.52" gradientTransform="translate(-6.04 -66.32) rotate(-4.85)" gradientUnits="userSpaceOnUse">
      <stop offset="0" stop-color="#69ff6c"/>
      <stop offset="1" stop-color="#0aff00"/>
    </linearGradient>
    <linearGradient id="linear-gradient-7" x1="40.44" y1="4.63" x2="40.44" y2="-4.12" gradientTransform="translate(9.27 32.75) rotate(2.4)" xlink:href="#linear-gradient"/>
    <linearGradient id="linear-gradient-8" x1="-815.09" y1="697.75" x2="-815.09" y2="689" gradientTransform="translate(-1035.99 239.21) rotate(129.19) scale(1 -1)" xlink:href="#linear-gradient"/>
  </defs>
  <g id="Layer_1-2" data-name="Layer 1">
    <g>
      <g>
        <path class="cls-9" d="M8.28,29.96c-1.73,0-4.21-.43-6.18-2.49-1.74-1.82-2.28-3.91-1.5-5.74.62-1.45,2.01-2.42,3.45-2.42,0,0,.1,0,.1,0,1.08.03,2.29.34,3.57.67,1.42.36,2.89.73,4.22.73h0c.72,0,1.34-.11,1.88-.33.19-.08.36-.11.5-.11.25,0,.45.11.56.31.77,1.31-2.67,7.58-3.37,8.82-.03.06-.08.1-.14.12-.05.02-1.35.45-3.12.45Z"/>
        <path class="cls-16" d="M4.06,19.56s.06,0,.09,0c2.25.07,5.23,1.4,7.8,1.4.7,0,1.37-.1,1.98-.35.16-.06.3-.1.41-.1,1.88,0-3.03,8.75-3.03,8.75,0,0-1.29.43-3.04.43s-4.14-.47-5.99-2.41c-3.59-3.75-1.06-7.73,1.77-7.73M4.06,19.04c-1.55,0-3.03,1.04-3.69,2.58-.83,1.94-.26,4.13,1.55,6.02,1.61,1.68,3.81,2.57,6.36,2.57,1.81,0,3.14-.44,3.2-.46.12-.04.22-.13.29-.24,1.28-2.28,4.16-7.72,3.36-9.08-.16-.28-.45-.44-.79-.44-.18,0-.38.04-.6.13-.52.21-1.1.31-1.79.31-1.31,0-2.76-.37-4.16-.72-1.3-.33-2.52-.64-3.63-.67h-.11Z"/>
      </g>
      <g>
        <path class="cls-9" d="M43.5,20.64s-.09-.01-.13-.03c-1.81-1.02-7.7-4.48-7.45-5.92.06-.32.33-.52.8-.6,1.86-.3,3.46-1.94,5.01-3.51.93-.94,1.8-1.83,2.71-2.42.55-.36,1.22-.55,1.92-.55,1.22,0,2.43.59,3.22,1.58.98,1.22,1.28,2.96.86,4.89-1.16,5.23-6.83,6.56-6.89,6.57-.02,0-.04,0-.06,0Z"/>
        <path class="cls-16" d="M46.36,7.85c2.26,0,4.71,2.14,3.83,6.15-1.13,5.13-6.69,6.37-6.69,6.37,0,0-9.8-5.54-6.73-6.04,3.07-.5,5.42-4.41,7.82-5.98.53-.34,1.14-.51,1.77-.51M46.36,7.34c-.75,0-1.46.2-2.06.59-.93.6-1.81,1.5-2.75,2.46-1.52,1.55-3.1,3.15-4.87,3.44-.74.12-.96.5-1.01.81-.27,1.51,4.63,4.53,7.57,6.19.08.04.17.07.25.07.04,0,.08,0,.11-.01.24-.05,5.89-1.38,7.08-6.77.44-2.01.12-3.82-.91-5.11-.84-1.05-2.12-1.67-3.42-1.67h0Z"/>
      </g>
      <g>
        <path class="cls-10" d="M26.64,47.59c-2.97,0-5.67-.53-8.04-1.59l-.23-.12c-.36-.16-.72-.34-1.07-.54-8.5-4.76-9.71-13.65-8.02-20.38.37-1.5.9-2.93,1.55-4.11,3.29-6.07,11.06-9.99,19.78-9.99,1.76,0,3.53.16,5.25.49,2.79.52,5.33,1.81,7.57,3.84,5.4,4.89,7.8,13.18,5.71,19.71-.2.61-.44,1.18-.74,1.73,0,.02-.01.04-.02.06-3.33,6.12-12.87,10.91-21.73,10.91Z"/>
        <path class="cls-12" d="M30.6,11.25c1.72,0,3.46.16,5.18.48,2.83.53,5.32,1.87,7.38,3.74,5.25,4.75,7.66,12.88,5.6,19.3-.19.58-.43,1.15-.74,1.71h0c-3.21,5.92-12.63,10.72-21.39,10.72-2.77,0-5.47-.48-7.89-1.56-.08-.04-.15-.08-.23-.12-.36-.16-.7-.33-1.04-.52-8.59-4.81-9.39-13.75-7.83-19.95.38-1.55.91-2.92,1.52-4.02,3.33-6.14,11.14-9.79,19.44-9.79M30.6,10.47h0c-8.86,0-16.76,4-20.12,10.2-.66,1.21-1.21,2.67-1.59,4.21-1.73,6.87-.48,15.95,8.21,20.81.39.22.75.4,1.11.56l.06.03c.05.03.1.05.15.08,2.43,1.08,5.19,1.63,8.21,1.63,8.99,0,18.69-4.88,22.07-11.12.02-.03.03-.06.04-.09.3-.56.55-1.16.75-1.76,2.14-6.67-.31-15.13-5.82-20.12-2.29-2.07-4.91-3.4-7.76-3.93-1.75-.33-3.54-.49-5.32-.49h0Z"/>
      </g>
      <g>
        <path class="cls-14" d="M9.19,26.82c-.43,0-.62-.71-.7-1.12-.26.23-.73.59-1.05.59-.06,0-.11-.01-.16-.03-.25-.12-.31-.45-.31-.72-.1.08-.23.14-.38.14-.05,0-.09,0-.14-.02-.31-.09-.4-.56-.43-.84-.17.08-.43.17-.66.17-.27,0-.41-.12-.47-.23-.26-.39.18-1.23.4-1.61-.36-.07-1.08-.25-1.27-.58-.06-.1-.06-.21-.02-.31.1-.21.41-.34.62-.4-.29-.37-.95-1.24-1-1.62-.02-.13.03-.21.07-.26.09-.1.25-.15.48-.15.25,0,.51.06.53.06.08.05,2.46,2.16,6.34,2.53.55.05,1.09.08,1.59.08,2.67,0,3.71-.76,3.71-.76.02-.02.05-.03.08-.03,0,0,.01,0,.02,0,.03,0,.07.02.08.05.01.01.24.35.16.95-.08.53-.85,1.01-1.12,1.17.04.21.09.7-.14,1.08-.14.23-.36.38-.65.45-.14.03-.3.05-.47.05-.68,0-1.39-.27-1.74-.43.04.38.04,1.08-.37,1.39-.11.08-.26.12-.45.12-.57,0-1.39-.38-1.71-.53-.11.25-.39.77-.82.83h-.05Z"/>
        <path class="cls-11" d="M4.2,19.93c.24,0,.5.06.5.06,0,0,2.39,2.15,6.36,2.53.59.06,1.12.08,1.6.08,2.76,0,3.79-.79,3.79-.79,0,0,.21.3.13.85-.08.56-1.14,1.13-1.14,1.13,0,0,.33,1.25-.68,1.48-.14.03-.29.05-.44.05-.91,0-1.9-.52-1.9-.52,0,0,.22,1.12-.28,1.51-.09.07-.22.1-.37.1-.67,0-1.77-.58-1.77-.58,0,0-.29.82-.77.88-.01,0-.02,0-.03,0-.46,0-.61-1.25-.61-1.25,0,0-.74.72-1.14.72-.04,0-.07,0-.1-.02-.35-.16-.2-.95-.2-.95,0,0-.24.35-.54.35-.03,0-.07,0-.1-.01-.34-.1-.35-.92-.35-.92,0,0-.43.25-.78.25-.15,0-.28-.04-.37-.17-.28-.42.51-1.64.51-1.64,0,0-1.16-.17-1.37-.55s.72-.58.72-.58c0,0-1.04-1.28-1.1-1.72-.03-.22.19-.27.43-.27M4.2,19.67c-.27,0-.46.06-.58.2-.06.07-.13.19-.1.37.05.37.58,1.11.92,1.54-.21.08-.44.22-.53.41-.06.14-.06.29.02.43.19.34.77.52,1.18.61-.25.46-.57,1.19-.31,1.59.09.13.26.29.58.29.19,0,.39-.06.56-.12.05.31.18.69.5.78.06.02.12.03.18.03.09,0,.18-.02.26-.05.03.25.13.51.37.63.06.03.13.04.21.04.3,0,.68-.25.97-.48.11.45.33,1.01.78,1.01.01,0,.05,0,.07,0,.43-.05.72-.49.87-.78.38.18,1.11.49,1.64.49.22,0,.39-.05.53-.15.39-.3.45-.87.43-1.29.39.16,1,.36,1.59.36.18,0,.34-.02.5-.05.33-.08.58-.25.74-.51.22-.37.21-.83.17-1.08.35-.21,1.03-.68,1.11-1.22.1-.64-.15-1-.18-1.04-.04-.06-.1-.09-.17-.1-.01,0-.03,0-.04,0-.06,0-.11.02-.16.05,0,0-1.03.74-3.64.74-.5,0-1.03-.03-1.58-.08-3.83-.37-6.19-2.44-6.21-2.47-.03-.03-.07-.05-.11-.06-.01,0-.29-.07-.56-.07h0Z"/>
      </g>
      <g>
        <path class="cls-8" d="M19.72,13.59s-2.76,1.47-7.77,4.56c-5.01,3.09-7.7,1-8.26,1.41s7.53,4.76,12.96,2.17"/>
        <path class="cls-12" d="M19.74,13.62c-2.14,1.56-4.35,2.95-6.64,4.22-2.8,1.65-5.98,2.64-9.23,1.97-.02,0,.11-.08.1-.16,0-.2-.02-.09.04-.07,1.48,1.05,3.29,1.58,5.02,2.07,2.45.74,5.32.73,7.63.11-4.03,2.18-9.25.9-12.89-1.54-.19-.19-.39-.24-.41-.67.09-.37.53-.37.8-.31,3.15,1.16,6.06,0,8.61-1.94,2.2-1.28,4.75-2.91,6.97-3.67h0Z"/>
      </g>
      <g>
        <path class="cls-14" d="M38.16,18.92c-.69,0-1.02-.7-1.12-.96h-.06c-.43,0-1.2-.05-1.51-.42-.39-.47-.36-.87-.36-.89,0-.03.02-.07.05-.09.02-.02.05-.03.08-.03h.03c.55,0,2.2-.17,4.88-2.17,3.13-2.33,4.07-5.36,4.08-5.39.08-.1.52-.52.84-.52.14,0,.25.07.31.21.15.35.04,1.44-.01,1.91.12-.03.28-.06.42-.06.41,0,.47.25.47.36.01.39-.51.91-.79,1.16.39.21,1.2.7,1.18,1.17-.02.46-.61.6-.94.64.13.26.29.7.07.94-.1.11-.25.17-.42.17-.03,0-.05,0-.07,0,.14.23.27.54.11.78-.09.14-.3.21-.63.21-.24,0-.51-.04-.69-.07.11.3.27.81.15,1.12-.04.11-.11.19-.21.23-.08.04-.17.05-.27.05-.33,0-.68-.21-.86-.33-.25.39-.98,1.47-1.58,1.47-.55-.06-.92-.66-1.08-1-.27.39-.91,1.21-1.69,1.47-.12.04-.24.06-.36.06Z"/>
        <path class="cls-11" d="M45.07,8.58c.08,0,.15.04.19.13.18.41-.05,2.04-.05,2.04,0,0,.31-.11.57-.11.18,0,.34.05.34.23.02.44-.89,1.18-.89,1.18,0,0,1.3.63,1.28,1.14s-1.02.53-1.02.53c0,0,.42.71.18.97-.09.1-.21.13-.33.13-.2,0-.39-.09-.39-.09,0,0,.53.6.32.92-.08.12-.29.15-.52.15-.41,0-.9-.11-.9-.11,0,0,.54,1.2.1,1.4-.07.03-.14.04-.22.04-.42,0-.9-.39-.9-.39,0,0-.91,1.52-1.54,1.52-.01,0-.03,0-.04,0-.63-.07-1.02-1.14-1.02-1.14,0,0-.78,1.29-1.75,1.62-.11.04-.22.05-.32.05-.74,0-1.03-.97-1.03-.97,0,0-.06,0-.16,0-.34,0-1.13-.04-1.41-.37-.36-.43-.33-.8-.33-.8,0,0,.03,0,.1,0,.42,0,2.13-.14,4.88-2.2,3.2-2.38,4.12-5.46,4.12-5.46,0,0,.44-.42.71-.42M45.07,8.32h0c-.35,0-.77.38-.89.5-.03.03-.05.07-.07.11,0,.03-.95,3.03-4.03,5.33-2.74,2.04-4.42,2.15-4.73,2.15-.04,0-.07,0-.08,0,0,0-.02,0-.02,0-.06,0-.12.02-.17.06-.05.04-.09.11-.09.18,0,.05-.03.48.39.98.32.38,1.03.46,1.58.47.14.33.5.96,1.21.96.13,0,.26-.02.4-.07.71-.24,1.31-.91,1.63-1.34.2.36.55.83,1.04.88,0,0,.06,0,.07,0,.61,0,1.3-.93,1.62-1.42.21.13.52.28.82.28.12,0,.23-.02.32-.07.13-.06.23-.16.28-.3.11-.28.02-.69-.08-1,.16.02.33.04.5.04.38,0,.62-.09.74-.27.15-.23.1-.5,0-.73.15-.03.28-.09.38-.2.23-.25.14-.64.02-.93.37-.07.87-.25.88-.74.02-.48-.63-.94-1.09-1.2.31-.3.71-.75.69-1.14,0-.23-.17-.48-.6-.48-.09,0-.18.01-.27.03.06-.54.13-1.45-.02-1.79-.08-.18-.23-.28-.42-.28h0Z"/>
      </g>
      <rect class="cls-14" x="22.67" y="32.76" width="17.58" height="13.71" rx="6.85" ry="6.85" transform="translate(-9.09 9.37) rotate(-14.83)"/>
      <path class="cls-1" d="M26.71,41.25s.3,2.95,3.29,2.87c3-.07,6.02-1.27,6.7-3.06s-.27-2.86-.27-2.86c0,0-1.26,1.1-2.43,1.05s-2.33-.63-2.93-1.5c0,0-.88,3.67-4.35,3.49Z"/>
      <g>
        <path class="cls-7" d="M37,31.68c1.5-.13,4.64-1.56,5.06-3.25s-1.19-4.06-4.5-3.28c-3.31.78-4.17,6.83-.55,6.53Z"/>
        <circle class="cls-14" cx="36.23" cy="28.82" r="1.16"/>
        <circle class="cls-14" cx="40.56" cy="27.25" r=".65"/>
      </g>
      <g>
        <path class="cls-6" d="M22.82,35.74c-1.36.64-4.79.98-6-.27-1.21-1.25-1.01-4.11,2.25-5.1s7.04,3.82,3.75,5.37Z"/>
        <circle class="cls-14" cx="22.06" cy="32.88" r="1.16"/>
        <circle class="cls-14" cx="17.52" cy="33.69" r=".65"/>
      </g>
      <ellipse class="cls-18" cx="42.93" cy="32.75" rx="3.01" ry="2.27" transform="translate(-6 9.91) rotate(-12.32)"/>
      <ellipse class="cls-18" cx="18.88" cy="39.62" rx="3.01" ry="2.27" transform="translate(-8.02 4.94) rotate(-12.32)"/>
      <g>
        <path class="cls-4" d="M28.18,11.32s3.12-.17,9.01-.13,7.1-3.14,7.8-3.08-3.97,7.97-9.96,8.57"/>
        <path class="cls-12" d="M28.18,11.28c2.61-.3,5.24-.42,7.87-.4,2.56.2,5.36.11,7.32-1.76.46-.38.78-.89,1.3-1.23.17-.09.41-.15.6.04.18.31.07.41.08.51-1.49,3.91-6.11,8.41-10.31,8.2,4.23-1.01,7.72-4.62,9.7-8.34.04-.05-.03-.13.07.04.03.08.18.08.17.09-.04,0-.11.05-.18.11-2.33,2.26-5.63,2.92-8.74,3-2.54.03-5.53.19-7.87-.25h0Z"/>
      </g>
      <g>
        <path class="cls-15" d="M25.55,18.51c.18,1.74-1.81,1.64-2.18.19-.28-1.62,2.15-1.96,2.18-.19h0ZM25.49,18.51c-.19-.96-1.76-.85-1.85.16-.11,1.2,1.89.81,1.85-.16h0Z"/>
        <path class="cls-15" d="M18.15,17.06c.11,1.05-1.1.98-1.32.11-.18-.97,1.31-1.17,1.32-.11h0ZM18.12,17.06c-.17-.61-1.05-.49-1.11.09-.06.71,1.13.5,1.11-.09h0Z"/>
        <path class="cls-15" d="M30.72,16.9c.11,1.05-1.1.98-1.32.11-.18-.97,1.31-1.17,1.32-.11h0ZM30.69,16.9c-.17-.61-1.05-.49-1.11.09-.06.71,1.13.5,1.11-.09h0Z"/>
        <path class="cls-15" d="M22.67,14.9c.11,1.05-1.1.98-1.32.11-.18-.97,1.31-1.17,1.32-.11h0ZM22.64,14.9c-.17-.61-1.05-.49-1.11.09-.06.71,1.13.5,1.11-.09h0Z"/>
        <path class="cls-15" d="M36.99,13.91c.11,1.05-1.1.98-1.32.11-.18-.97,1.31-1.17,1.32-.11h0ZM36.96,13.92c-.17-.61-1.05-.49-1.11.09-.06.71,1.13.5,1.11-.09h0Z"/>
        <path class="cls-15" d="M26.02,21.75c.11,1.05-1.1.98-1.32.11-.18-.97,1.31-1.17,1.32-.11h0ZM25.99,21.75c-.17-.61-1.05-.49-1.11.09-.06.71,1.13.5,1.11-.09h0Z"/>
        <path class="cls-15" d="M18.07,25.1c.11,1.05-1.1.98-1.32.11-.18-.97,1.31-1.17,1.32-.11h0ZM18.04,25.11c-.17-.61-1.05-.49-1.11.09-.06.71,1.13.5,1.11-.09h0Z"/>
        <path class="cls-15" d="M32.47,13.52c.18,1.74-1.81,1.64-2.18.19-.28-1.62,2.15-1.96,2.18-.19h0ZM32.42,13.52c-.19-.96-1.76-.85-1.85.16-.11,1.2,1.89.81,1.85-.16h0Z"/>
        <path class="cls-15" d="M14.9,18.85c.18,1.74-1.81,1.64-2.18.19-.28-1.62,2.15-1.96,2.18-.19h0ZM14.85,18.86c-.19-.96-1.76-.85-1.85.16-.11,1.2,1.89.81,1.85-.16h0Z"/>
        <path class="cls-15" d="M35.33,19.6c.18,1.74-1.81,1.64-2.18.19-.28-1.62,2.15-1.96,2.18-.19h0ZM35.27,19.61c-.19-.96-1.76-.85-1.85.16-.11,1.2,1.89.81,1.85-.16h0Z"/>
        <path class="cls-15" d="M20.87,23.08c.18,1.74-1.81,1.64-2.18.19-.28-1.62,2.15-1.96,2.18-.19h0ZM20.82,23.08c-.19-.96-1.76-.85-1.85.16-.11,1.2,1.89.81,1.85-.16h0Z"/>
        <path class="cls-15" d="M11.04,20.65c.07.99-1.32.97-1.59.13-.11-1,1.55-1.09,1.59-.13h0ZM11,20.65c-.14-.56-1.29-.41-1.37.12-.07.68,1.42.39,1.37-.12h0Z"/>
        <path class="cls-15" d="M21.16,17.86c.07.99-1.32.97-1.59.13-.11-1,1.55-1.09,1.59-.13h0ZM21.13,17.87c-.14-.56-1.29-.41-1.37.12-.07.68,1.42.39,1.37-.12h0Z"/>
        <path class="cls-15" d="M40.1,12.84c.07.99-1.32.98-1.59.13-.11-1,1.55-1.09,1.59-.13h0ZM40.07,12.85c-.14-.56-1.29-.41-1.37.12-.07.68,1.42.39,1.37-.12h0Z"/>
        <path class="cls-15" d="M26.63,14.17c-.99.02-.92-1.36-.06-1.59,1.01-.06,1.02,1.59.06,1.59h0ZM26.63,14.14c.57-.11.46-1.27-.05-1.38-.68-.1-.46,1.4.05,1.38h0Z"/>
        <path class="cls-15" d="M30.06,21.55c-.99.02-.92-1.36-.06-1.59,1.01-.06,1.02,1.59.06,1.59h0ZM30.06,21.52c.57-.11.46-1.27-.05-1.38-.68-.1-.46,1.4.05,1.38h0Z"/>
      </g>
      <path class="cls-5" d="M32.47,5.31s-.45-3.22-2.98-2.83c-2.52.39-1.27,4.29-1.44,4.43s-4.13-2.16-6.27,1.07,1.38,6.36,4.03,7.61c0,0-2.7.65-5.59-2.54s-1.43-7.83,1.38-8.69c2.8-.86,4.98.64,4.98.64,0,0-1.1-4.7,3.04-4.99,4.14-.29,3.81,3.92,2.84,5.29Z"/>
    </g>
    <g>
      <path class="cls-17" d="M34.02,39.15s1.08,1.22,1.58.89.17-1.55.17-1.55c0,0-1.07.61-1.75.65Z"/>
      <path class="cls-17" d="M27.44,41.1s1.08,1.22,1.58.89.17-1.55.17-1.55c0,0-1.07.61-1.75.65Z"/>
      <g>
        <g>
          <path class="cls-3" d="M51.69,40.7l-4.54-.19c-1.17-.05-2.3-.43-3.27-1.11-1.72-1.21-2.69-3.18-2.6-5.26l.03-.65c.14-3.29,2.83-5.88,6.12-5.88.09,0,.17,0,.26,0l4.54.19c3.38.14,6.01,3.01,5.87,6.38l-.03.65c-.1,2.34-1.5,4.39-3.65,5.34-.77.35-1.63.53-2.48.53-.09,0-.17,0-.26,0Z"/>
          <path class="cls-12" d="M47.42,28.02c.08,0,.16,0,.24,0l4.54.19c3.16.13,5.61,2.8,5.48,5.96l-.03.65c-.09,2.25-1.47,4.13-3.4,4.98-.7.32-1.49.49-2.32.49-.08,0-.16,0-.24,0l-4.54-.19c-1.14-.05-2.18-.43-3.05-1.04-1.54-1.08-2.51-2.89-2.43-4.91l.03-.65c.13-3.08,2.67-5.49,5.72-5.49M47.42,27.21h0c-3.51,0-6.38,2.75-6.53,6.26l-.03.65c-.09,2.22.94,4.32,2.77,5.61,1.04.72,2.24,1.13,3.49,1.19l4.54.19c.09,0,.18,0,.27,0,.91,0,1.83-.2,2.65-.57,2.29-1.01,3.78-3.19,3.88-5.69l.03-.65c.15-3.6-2.66-6.65-6.26-6.81l-4.54-.19c-.09,0-.18,0-.28,0h0Z"/>
        </g>
        <polygon class="cls-19" points="46.94 40.07 47.69 35.05 48.02 40.11 46.94 40.07"/>
        <polygon class="cls-19" points="51.13 40.24 51.88 35.23 52.21 40.29 51.13 40.24"/>
      </g>
      <g>
        <g>
          <path class="cls-2" d="M14.85,53.38c-1.4,0-2.76-.49-3.85-1.37l-.5-.41c-2.62-2.14-3.01-6.01-.88-8.63l2.87-3.52c1.17-1.43,2.9-2.26,4.76-2.26,1.41,0,2.78.49,3.87,1.38l.5.41c1.62,1.32,2.44,3.35,2.21,5.43-.14,1.18-.6,2.28-1.34,3.19l-2.87,3.52c-.59.73-1.36,1.32-2.21,1.7-.8.37-1.68.56-2.56.56h0Z"/>
          <path class="cls-12" d="M17.24,37.6c1.27,0,2.55.42,3.61,1.29l.5.41c1.57,1.28,2.27,3.21,2.06,5.08-.12,1.06-.53,2.09-1.25,2.97l-2.87,3.52c-.57.7-1.29,1.24-2.06,1.59-.75.35-1.57.52-2.39.52-1.26,0-2.54-.42-3.59-1.28l-.5-.41c-2.45-2-2.82-5.61-.82-8.06l2.87-3.52c1.13-1.39,2.78-2.11,4.44-2.11M17.24,36.78c-1.98,0-3.82.88-5.07,2.41l-2.87,3.52c-1.1,1.35-1.61,3.05-1.44,4.79.18,1.74,1.02,3.3,2.37,4.41l.5.41c1.16.94,2.62,1.47,4.11,1.47.94,0,1.88-.21,2.73-.6.9-.41,1.72-1.03,2.35-1.81l2.87-3.52c.79-.97,1.28-2.14,1.43-3.39.25-2.23-.63-4.39-2.36-5.8l-.5-.41c-1.16-.95-2.63-1.47-4.13-1.47h0Z"/>
        </g>
        <polygon class="cls-19" points="21.61 47.99 18.04 44.38 22.29 47.15 21.61 47.99"/>
        <polygon class="cls-19" points="18.96 51.24 15.39 47.63 19.64 50.4 18.96 51.24"/>
      </g>
      <path class="cls-13" d="M25.01,39.64s.3,1.82,2.8,1.55,3.27-3.72,3.27-3.72c0,0,1.01,2.17,3.62,1.67,2.61-.51,2.62-2.81,2.62-2.81"/>
      <path class="cls-19" d="M30.98,37.54s-2.2.3-2.55-1.38,2.72-2.44,3.83-1.56,0,2.69-1.28,2.94Z"/>
      <path class="cls-1" d="M34.33,36.7c.35,0,.35-.54,0-.54s-.35.54,0,.54h0Z"/>
      <path class="cls-1" d="M26.83,40.04c.35,0,.35-.54,0-.54s-.35.54,0,.54h0Z"/>
      <path class="cls-1" d="M29.18,39.08c.35,0,.35-.54,0-.54s-.35.54,0,.54h0Z"/>
      <path class="cls-1" d="M32.88,37.65c.35,0,.35-.54,0-.54s-.35.54,0,.54h0Z"/>
      <path class="cls-1" d="M34.91,38.02c.35,0,.35-.54,0-.54s-.35.54,0,.54h0Z"/>
      <path class="cls-1" d="M27.18,38.74c.35,0,.35-.54,0-.54s-.35.54,0,.54h0Z"/>
    </g>
  </g>
</svg>