<?xml version="1.0" encoding="UTF-8"?>
<svg id="Layer_2" data-name="Layer 2" xmlns="http://www.w3.org/2000/svg" xmlns:xlink="http://www.w3.org/1999/xlink" viewBox="0 0 42.94 29.01">
  <defs>
    <style>
      .cls-1 {
        fill: none;
      }

      .cls-2 {
        fill: url(#linear-gradient-8);
      }

      .cls-3 {
        fill: url(#linear-gradient-7);
      }

      .cls-4 {
        fill: url(#linear-gradient-5);
      }

      .cls-5 {
        fill: url(#linear-gradient-6);
      }

      .cls-6 {
        fill: url(#linear-gradient-9);
      }

      .cls-7 {
        fill: url(#linear-gradient-4);
      }

      .cls-8 {
        fill: url(#linear-gradient-3);
      }

      .cls-9 {
        fill: url(#linear-gradient-2);
      }

      .cls-10 {
        fill: url(#linear-gradient);
      }

      .cls-11 {
        fill: url(#linear-gradient-43);
      }

      .cls-12 {
        fill: url(#linear-gradient-40);
      }

      .cls-13 {
        fill: url(#linear-gradient-41);
      }

      .cls-14 {
        fill: url(#linear-gradient-42);
      }

      .cls-15 {
        fill: url(#linear-gradient-49);
      }

      .cls-16 {
        fill: url(#linear-gradient-48);
      }

      .cls-17 {
        fill: url(#linear-gradient-45);
      }

      .cls-18 {
        fill: url(#linear-gradient-47);
      }

      .cls-19 {
        fill: url(#linear-gradient-44);
      }

      .cls-20 {
        fill: url(#linear-gradient-46);
      }

      .cls-21 {
        fill: url(#linear-gradient-10);
      }

      .cls-22 {
        fill: url(#linear-gradient-11);
      }

      .cls-23 {
        fill: url(#linear-gradient-12);
      }

      .cls-24 {
        fill: url(#linear-gradient-13);
      }

      .cls-25 {
        fill: url(#linear-gradient-19);
      }

      .cls-26 {
        fill: url(#linear-gradient-14);
      }

      .cls-27 {
        fill: url(#linear-gradient-21);
      }

      .cls-28 {
        fill: url(#linear-gradient-20);
      }

      .cls-29 {
        fill: url(#linear-gradient-22);
      }

      .cls-30 {
        fill: url(#linear-gradient-23);
      }

      .cls-31 {
        fill: url(#linear-gradient-28);
      }

      .cls-32 {
        fill: url(#linear-gradient-25);
      }

      .cls-33 {
        fill: url(#linear-gradient-32);
      }

      .cls-34 {
        fill: url(#linear-gradient-31);
      }

      .cls-35 {
        fill: url(#linear-gradient-33);
      }

      .cls-36 {
        fill: url(#linear-gradient-30);
      }

      .cls-37 {
        fill: url(#linear-gradient-15);
      }

      .cls-38 {
        fill: url(#linear-gradient-16);
      }

      .cls-39 {
        fill: url(#linear-gradient-17);
      }

      .cls-40 {
        fill: url(#linear-gradient-18);
      }

      .cls-41 {
        fill: url(#linear-gradient-35);
      }

      .cls-42 {
        fill: url(#linear-gradient-34);
      }

      .cls-43 {
        fill: url(#linear-gradient-36);
      }

      .cls-44 {
        fill: url(#linear-gradient-38);
      }

      .cls-45 {
        fill: url(#linear-gradient-27);
      }

      .cls-46 {
        fill: url(#linear-gradient-24);
      }

      .cls-47 {
        fill: url(#linear-gradient-26);
      }

      .cls-48 {
        fill: url(#linear-gradient-29);
      }

      .cls-49 {
        fill: url(#linear-gradient-37);
      }

      .cls-50 {
        fill: url(#linear-gradient-39);
      }

      .cls-51 {
        fill: url(#linear-gradient-57);
      }

      .cls-52 {
        fill: url(#linear-gradient-58);
      }

      .cls-53 {
        fill: url(#linear-gradient-59);
      }

      .cls-54 {
        fill: url(#linear-gradient-53);
      }

      .cls-55 {
        fill: url(#linear-gradient-54);
      }

      .cls-56 {
        fill: url(#linear-gradient-55);
      }

      .cls-57 {
        fill: url(#linear-gradient-56);
      }

      .cls-58 {
        fill: url(#linear-gradient-50);
      }

      .cls-59 {
        fill: url(#linear-gradient-51);
      }

      .cls-60 {
        fill: url(#linear-gradient-52);
      }

      .cls-61 {
        fill: url(#linear-gradient-67);
      }

      .cls-62 {
        fill: url(#linear-gradient-63);
      }

      .cls-63 {
        fill: url(#linear-gradient-64);
      }

      .cls-64 {
        fill: url(#linear-gradient-65);
      }

      .cls-65 {
        fill: url(#linear-gradient-66);
      }

      .cls-66 {
        fill: url(#linear-gradient-60);
      }

      .cls-67 {
        fill: url(#linear-gradient-61);
      }

      .cls-68 {
        fill: url(#linear-gradient-62);
      }

      .cls-69 {
        clip-path: url(#clippath);
      }
    </style>
    <linearGradient id="linear-gradient" x1="-62.17" y1="-419.15" x2="-74.43" y2="-382.21" gradientTransform="translate(-125.26 403.36) rotate(30.4)" gradientUnits="userSpaceOnUse">
      <stop offset="0" stop-color="#966e69"/>
      <stop offset=".21" stop-color="#765556"/>
      <stop offset=".26" stop-color="#6d4f51"/>
      <stop offset=".57" stop-color="#4d3a3b"/>
      <stop offset="1" stop-color="#1a1a1a"/>
    </linearGradient>
    <linearGradient id="linear-gradient-2" x1="28.45" y1="-2.99" x2="16.91" y2="32.74" gradientUnits="userSpaceOnUse">
      <stop offset=".08" stop-color="#755451"/>
      <stop offset=".44" stop-color="#55403e"/>
      <stop offset=".97" stop-color="#1f1f1f"/>
    </linearGradient>
    <clipPath id="clippath">
      <path class="cls-1" d="M.6,23.83s8.07-3.94,16.66-5.05c8.59-1.11,14.17-3.46,14.58-6.01.41-2.55-1.92-5.04-1.37-6.84.55-1.8.94-2.08,1.15-1.96s.24.26.24.26c0,0-.02-1.06.65-1.48s.97-.33,1.16-.6-.19-.78.08-1.08.98-.6,1.67-.32.74.33,1.13.05,1.27-.36,2.03.26.92,1.44,1.21,1.6.63.04.94.68.3,2.02.32,2.33.45.73.83,2.28,1.39,4.25-.84,9.01c-2.22,4.76-5.54,7.03-11.59,8.31-6.05,1.27-14.3,1.18-18,2.43-3.7,1.25-6.82.5-6.82.5L.6,23.83Z"/>
    </clipPath>
    <linearGradient id="linear-gradient-3" x1="-56.95" y1="-424.33" x2="-65.52" y2="-393.94" gradientTransform="translate(-125.26 403.36) rotate(30.4)" gradientUnits="userSpaceOnUse">
      <stop offset="0" stop-color="#ac837a"/>
      <stop offset=".58" stop-color="#8c646f"/>
      <stop offset=".58" stop-color="#8c646f"/>
    </linearGradient>
    <linearGradient id="linear-gradient-4" x1="-64.84" y1="-426.56" x2="-73.42" y2="-396.16" xlink:href="#linear-gradient-3"/>
    <linearGradient id="linear-gradient-5" x1="-60" y1="-425.19" x2="-68.57" y2="-394.8" xlink:href="#linear-gradient-3"/>
    <linearGradient id="linear-gradient-6" x1="-61.59" y1="-425.64" x2="-70.17" y2="-395.25" xlink:href="#linear-gradient-3"/>
    <linearGradient id="linear-gradient-7" x1="-61.83" y1="-425.42" x2="-70.4" y2="-395.02" xlink:href="#linear-gradient-3"/>
    <linearGradient id="linear-gradient-8" x1="-61.91" y1="-425.73" x2="-70.48" y2="-395.34" xlink:href="#linear-gradient-3"/>
    <linearGradient id="linear-gradient-9" x1="-65.58" y1="-426.76" x2="-74.15" y2="-396.37" xlink:href="#linear-gradient-3"/>
    <linearGradient id="linear-gradient-10" x1="-63.23" y1="-426.1" x2="-71.81" y2="-395.71" xlink:href="#linear-gradient-3"/>
    <linearGradient id="linear-gradient-11" x1="-56.26" y1="-424.13" x2="-64.83" y2="-393.74" xlink:href="#linear-gradient-3"/>
    <linearGradient id="linear-gradient-12" x1="-57.59" y1="-424.51" x2="-66.16" y2="-394.12" xlink:href="#linear-gradient-3"/>
    <linearGradient id="linear-gradient-13" x1="12.41" y1="-244.7" x2="3.81" y2="-214.21" gradientTransform="translate(-50.48 233.6) rotate(17.91)" xlink:href="#linear-gradient-3"/>
    <linearGradient id="linear-gradient-14" x1="16.72" y1="-242.39" x2="8.12" y2="-211.9" gradientTransform="translate(-50.48 233.6) rotate(17.91)" xlink:href="#linear-gradient-3"/>
    <linearGradient id="linear-gradient-15" x1="12.69" y1="-244.45" x2="4.08" y2="-213.96" gradientTransform="translate(-50.48 233.6) rotate(17.91)" xlink:href="#linear-gradient-3"/>
    <linearGradient id="linear-gradient-16" x1="10.67" y1="-245.66" x2="2.07" y2="-215.16" gradientTransform="translate(-50.48 233.6) rotate(17.91)" xlink:href="#linear-gradient-3"/>
    <linearGradient id="linear-gradient-17" x1="-67.08" y1="-427.19" x2="-75.66" y2="-396.8" xlink:href="#linear-gradient-3"/>
    <linearGradient id="linear-gradient-18" x1="-.19" y1="-250.61" x2="-8.79" y2="-220.12" gradientTransform="translate(-50.48 233.6) rotate(17.91)" xlink:href="#linear-gradient-3"/>
    <linearGradient id="linear-gradient-19" x1="2.83" y1="-249.05" x2="-5.78" y2="-218.56" gradientTransform="translate(-50.48 233.6) rotate(17.91)" xlink:href="#linear-gradient-3"/>
    <linearGradient id="linear-gradient-20" x1="-.42" y1="-250.79" x2="-9.02" y2="-220.3" gradientTransform="translate(-50.48 233.6) rotate(17.91)" xlink:href="#linear-gradient-3"/>
    <linearGradient id="linear-gradient-21" x1="-59.55" y1="-425.06" x2="-68.12" y2="-394.67" xlink:href="#linear-gradient-3"/>
    <linearGradient id="linear-gradient-22" x1="-59.49" y1="-425.04" x2="-68.06" y2="-394.65" xlink:href="#linear-gradient-3"/>
    <linearGradient id="linear-gradient-23" x1="-62.83" y1="-425.99" x2="-71.41" y2="-395.6" xlink:href="#linear-gradient-3"/>
    <linearGradient id="linear-gradient-24" x1="-57.95" y1="-424.61" x2="-66.52" y2="-394.22" xlink:href="#linear-gradient-3"/>
    <linearGradient id="linear-gradient-25" x1="-63.77" y1="-426.25" x2="-72.34" y2="-395.86" xlink:href="#linear-gradient-3"/>
    <linearGradient id="linear-gradient-26" x1="-52.91" y1="-423.19" x2="-61.48" y2="-392.8" xlink:href="#linear-gradient-3"/>
    <linearGradient id="linear-gradient-27" x1="-54.68" y1="-423.69" x2="-63.25" y2="-393.3" xlink:href="#linear-gradient-3"/>
    <linearGradient id="linear-gradient-28" x1="-55.16" y1="-423.82" x2="-63.73" y2="-393.43" xlink:href="#linear-gradient-3"/>
    <linearGradient id="linear-gradient-29" x1="-50.65" y1="-422.55" x2="-59.23" y2="-392.16" xlink:href="#linear-gradient-3"/>
    <linearGradient id="linear-gradient-30" x1="-50.67" y1="-422.56" x2="-59.24" y2="-392.16" xlink:href="#linear-gradient-3"/>
    <linearGradient id="linear-gradient-31" x1="-54.57" y1="-423.66" x2="-63.15" y2="-393.27" xlink:href="#linear-gradient-3"/>
    <linearGradient id="linear-gradient-32" x1="-58.54" y1="-424.78" x2="-67.11" y2="-394.38" xlink:href="#linear-gradient-3"/>
    <linearGradient id="linear-gradient-33" x1="-56.19" y1="-424.12" x2="-64.77" y2="-393.72" xlink:href="#linear-gradient-3"/>
    <linearGradient id="linear-gradient-34" x1="18.1" y1="-241.51" x2="9.49" y2="-211.02" gradientTransform="translate(-50.48 233.6) rotate(17.91)" xlink:href="#linear-gradient-3"/>
    <linearGradient id="linear-gradient-35" x1="18.2" y1="-241.35" x2="9.59" y2="-210.86" gradientTransform="translate(-50.48 233.6) rotate(17.91)" xlink:href="#linear-gradient-3"/>
    <linearGradient id="linear-gradient-36" x1="-52.51" y1="-423.08" x2="-61.08" y2="-392.68" xlink:href="#linear-gradient-3"/>
    <linearGradient id="linear-gradient-37" x1="-52.36" y1="-423.03" x2="-60.93" y2="-392.64" xlink:href="#linear-gradient-3"/>
    <linearGradient id="linear-gradient-38" x1="-55.72" y1="-423.98" x2="-64.3" y2="-393.59" xlink:href="#linear-gradient-3"/>
    <linearGradient id="linear-gradient-39" x1="-57.47" y1="-424.48" x2="-66.05" y2="-394.08" xlink:href="#linear-gradient-3"/>
    <linearGradient id="linear-gradient-40" x1="-53.85" y1="-423.45" x2="-62.43" y2="-393.06" xlink:href="#linear-gradient-3"/>
    <linearGradient id="linear-gradient-41" x1="-61.83" y1="-425.71" x2="-70.41" y2="-395.31" xlink:href="#linear-gradient-3"/>
    <linearGradient id="linear-gradient-42" x1="-62.31" y1="-425.84" x2="-70.88" y2="-395.45" xlink:href="#linear-gradient-3"/>
    <linearGradient id="linear-gradient-43" x1="-54.99" y1="-423.78" x2="-63.57" y2="-393.39" xlink:href="#linear-gradient-3"/>
    <linearGradient id="linear-gradient-44" x1="-65.33" y1="-426.69" x2="-73.91" y2="-396.3" xlink:href="#linear-gradient-3"/>
    <linearGradient id="linear-gradient-45" x1="-51.6" y1="-422.82" x2="-60.18" y2="-392.43" xlink:href="#linear-gradient-3"/>
    <linearGradient id="linear-gradient-46" x1="-61.14" y1="-425.51" x2="-69.72" y2="-395.12" xlink:href="#linear-gradient-3"/>
    <linearGradient id="linear-gradient-47" x1="-62.47" y1="-425.89" x2="-71.05" y2="-395.5" xlink:href="#linear-gradient-3"/>
    <linearGradient id="linear-gradient-48" x1="13.09" y1="-243.76" x2="4.49" y2="-213.27" gradientTransform="translate(-50.48 233.6) rotate(17.91)" xlink:href="#linear-gradient-3"/>
    <linearGradient id="linear-gradient-49" x1="7.63" y1="-246.74" x2="-.97" y2="-216.25" gradientTransform="translate(-50.48 233.6) rotate(17.91)" xlink:href="#linear-gradient-3"/>
    <linearGradient id="linear-gradient-50" x1="10.62" y1="-245.23" x2="2.02" y2="-214.74" gradientTransform="translate(-50.48 233.6) rotate(17.91)" xlink:href="#linear-gradient-3"/>
    <linearGradient id="linear-gradient-51" x1="2.78" y1="-249.21" x2="-5.82" y2="-218.71" gradientTransform="translate(-50.48 233.6) rotate(17.91)" xlink:href="#linear-gradient-3"/>
    <linearGradient id="linear-gradient-52" x1="-64.43" y1="-426.44" x2="-73.01" y2="-396.05" xlink:href="#linear-gradient-3"/>
    <linearGradient id="linear-gradient-53" x1="-64.37" y1="-426.42" x2="-72.95" y2="-396.03" xlink:href="#linear-gradient-3"/>
    <linearGradient id="linear-gradient-54" x1="-57.79" y1="-424.57" x2="-66.37" y2="-394.17" xlink:href="#linear-gradient-3"/>
    <linearGradient id="linear-gradient-55" x1="-66.22" y1="-426.95" x2="-74.8" y2="-396.55" xlink:href="#linear-gradient-3"/>
    <linearGradient id="linear-gradient-56" x1="-59.46" y1="-425.04" x2="-68.03" y2="-394.64" xlink:href="#linear-gradient-3"/>
    <linearGradient id="linear-gradient-57" x1="-63.42" y1="-426.15" x2="-72" y2="-395.76" xlink:href="#linear-gradient-3"/>
    <linearGradient id="linear-gradient-58" x1="-61.08" y1="-425.49" x2="-69.66" y2="-395.1" xlink:href="#linear-gradient-3"/>
    <linearGradient id="linear-gradient-59" x1="9.01" y1="-245.86" x2=".4" y2="-215.37" gradientTransform="translate(-50.48 233.6) rotate(17.91)" xlink:href="#linear-gradient-3"/>
    <linearGradient id="linear-gradient-60" x1="-68.06" y1="-427.46" x2="-76.64" y2="-397.07" xlink:href="#linear-gradient-3"/>
    <linearGradient id="linear-gradient-61" x1="-58.74" y1="-424.83" x2="-67.31" y2="-394.44" xlink:href="#linear-gradient-3"/>
    <linearGradient id="linear-gradient-62" x1="-52.15" y1="-422.97" x2="-60.73" y2="-392.58" xlink:href="#linear-gradient-3"/>
    <linearGradient id="linear-gradient-63" x1="-55.79" y1="-424" x2="-64.37" y2="-393.61" xlink:href="#linear-gradient-3"/>
    <linearGradient id="linear-gradient-64" x1="-59.74" y1="-425.11" x2="-68.31" y2="-394.72" xlink:href="#linear-gradient-3"/>
    <linearGradient id="linear-gradient-65" x1="-56.43" y1="-424.18" x2="-65.01" y2="-393.79" xlink:href="#linear-gradient-3"/>
    <linearGradient id="linear-gradient-66" x1="-58.73" y1="-424.83" x2="-67.3" y2="-394.44" xlink:href="#linear-gradient-3"/>
    <linearGradient id="linear-gradient-67" x1="-59.21" y1="-424.97" x2="-67.78" y2="-394.57" xlink:href="#linear-gradient-3"/>
  </defs>
  <g id="Layer_1-2" data-name="Layer 1">
    <g>
      <g>
        <path class="cls-10" d="M.6,23.83s8.07-3.94,16.66-5.05c8.59-1.11,14.17-3.46,14.58-6.01.41-2.55-1.92-5.04-1.37-6.84.55-1.8.94-2.08,1.15-1.96s.24.26.24.26c0,0-.02-1.06.65-1.48s.97-.33,1.16-.6-.19-.78.08-1.08.98-.6,1.67-.32.74.33,1.13.05,1.27-.36,2.03.26.92,1.44,1.21,1.6.63.04.94.68.3,2.02.32,2.33.45.73.83,2.28,1.06,4.69-.67,8.74c-2.06,4.83-5.71,7.3-11.76,8.57-6.05,1.27-14.3,1.18-18,2.43-3.7,1.25-6.68.49-6.68.49L.6,23.83Z"/>
        <path class="cls-9" d="M37.32.6c.39,0,.84.13,1.26.47.76.62.92,1.44,1.21,1.6.3.16.63.04.94.68.31.64.3,2.02.32,2.33.02.31.45.73.83,2.28.39,1.55,1.06,4.69-.67,8.74-2.06,4.83-5.71,7.3-11.76,8.57-6.05,1.27-14.3,1.18-18,2.43-1.67.56-3.19.72-4.36.72-1.42,0-2.32-.23-2.32-.23L.6,23.83s8.07-3.94,16.66-5.05,14.17-3.46,14.58-6.01c.41-2.55-1.92-5.04-1.37-6.84.48-1.57.84-1.98,1.06-1.98.03,0,.06,0,.09.02.21.12.24.26.24.26,0,0-.02-1.06.65-1.48.67-.42.97-.33,1.16-.6.2-.26-.19-.78.08-1.08.2-.22.61-.43,1.09-.43.19,0,.39.03.58.12.37.16.56.24.71.24.13,0,.24-.06.42-.19.18-.12.45-.21.77-.21M37.32,0c-.42,0-.82.11-1.11.32-.05.04-.08.06-.1.07-.07-.02-.21-.08-.36-.14l-.1-.04c-.26-.11-.53-.16-.81-.16-.58,0-1.18.24-1.53.62-.36.39-.26.87-.21,1.12,0,0,0,.02,0,.03-.01,0-.03,0-.04.01-.19.07-.49.17-.88.42-.45.28-.68.72-.8,1.12-.57.1-1.01.81-1.49,2.39-.33,1.07.13,2.22.61,3.43.46,1.15.93,2.34.75,3.49-.3,1.88-4.77,4.31-14.07,5.51C8.59,19.29.42,23.25.34,23.29c-.17.08-.29.24-.33.43-.03.19.03.38.16.52l4.18,4.35c.08.08.18.14.28.17.04.01.99.25,2.47.25s3.08-.25,4.55-.75c1.89-.64,5.12-.93,8.55-1.23,3.2-.28,6.5-.58,9.39-1.18,6.45-1.36,10.1-4.03,12.18-8.92,1.87-4.4,1.02-7.83.7-9.12-.26-1.04-.54-1.62-.71-1.96-.04-.09-.1-.21-.11-.24,0-.02,0-.1,0-.2-.02-.58-.06-1.67-.37-2.31-.31-.66-.72-.82-1.07-.91-.03,0-.06-.02-.09-.02-.04-.06-.1-.17-.15-.26-.19-.34-.47-.86-1.01-1.29-.48-.39-1.06-.6-1.64-.6h0Z"/>
      </g>
      <g class="cls-69">
        <g>
          <path class="cls-8" d="M38.79,7.18s1.77.79,1.1,2.26-1.92,1.32-2.38.9-.51-.88-.51-.88c0,0-.59,2.14,1.51,2.41s2.99-1.49,2.75-3.02-2.13-2.03-2.47-1.67Z"/>
          <path class="cls-7" d="M31.18,4.25s1.08.48.67,1.37-1.16.8-1.44.55-.31-.54-.31-.54c0,0-.36,1.3.91,1.46s1.81-.91,1.67-1.83-1.29-1.23-1.5-1.01Z"/>
          <path class="cls-4" d="M39.08,4.17s.7,0,.93.6-.36,1.73-1.03,1.52-1.02-1.01-.84-1.06.91.41,1.16.17-.29-1.22-.21-1.23Z"/>
          <path class="cls-5" d="M39.57,1.4s.7,0,.93.6-.36,1.73-1.03,1.52-1.02-1.01-.84-1.06.91.41,1.16.17-.29-1.22-.21-1.23Z"/>
          <path class="cls-3" d="M30.93,8.38s.77-.77,1.68-.33,1.47,2.32.49,2.81-1.86.61-1.72.35,1.09-1.14,1.11-1.69-1.64-1.04-1.56-1.14Z"/>
          <path class="cls-2" d="M37.85,5.06c-.07-.1-.46-.08-.75.29s-1.35.46-1.4-.12.34-1.5-.17-1.13-.54,1.44-.04,2.27,1.51.45,1.94-.26.41-1.05.41-1.05Z"/>
          <path class="cls-6" d="M34.23,1.14c-.12,0-.35.31-.23.77s-.46,1.34-.95,1.03-.97-1.19-.99-.56.8,1.31,1.77,1.43,1.28-.91.99-1.69-.57-.97-.57-.97Z"/>
          <path class="cls-21" d="M34.48,6.12s.07-.76-.7-.76-.05-.99.64-.52.36,1.46.06,1.29Z"/>
          <path class="cls-22" d="M37.16,13.64s-.29-.71-.97-.35-.5-.85.33-.76,1,1.13.65,1.11Z"/>
          <path class="cls-23" d="M39.3,9.66s-.29-.71-.97-.35-.5-.85.33-.76,1,1.13.65,1.11Z"/>
          <path class="cls-24" d="M38.17,3.74c.14-.76-.9-1.67-1.64-.77-.73.9.61,1.48.61,1.48.39.19.88.05,1.02-.71ZM37.22,4.03s-.73-.32-.33-.81c.4-.49.96,0,.89.42s-.35.49-.56.39Z"/>
          <path class="cls-26" d="M41.69,6.84c.12-.64-.76-1.41-1.38-.65-.62.76.52,1.25.52,1.25.33.16.74.04.86-.6ZM40.88,7.09s-.62-.27-.28-.68c.34-.41.81,0,.75.35s-.29.41-.47.33Z"/>
          <path class="cls-37" d="M35.9,7.51c.12-.64-.76-1.41-1.38-.65-.62.76.52,1.25.52,1.25.33.16.74.04.86-.6ZM35.09,7.76s-.62-.27-.28-.68c.34-.41.81,0,.75.35s-.29.41-.47.33Z"/>
          <path class="cls-38" d="M37.42,1.45c.14-.8-.94-1.74-1.71-.8-.77.94.64,1.55.64,1.55.4.2.92.05,1.07-.74ZM36.42,1.75s-.77-.33-.35-.84c.42-.51,1.01,0,.93.44s-.36.51-.58.4Z"/>
          <path class="cls-39" d="M8.9,23.12s.61,0,.8.52-.31,1.49-.89,1.3-.88-.87-.73-.91.78.36,1,.15-.25-1.05-.18-1.06Z"/>
          <path class="cls-40" d="M7.48,25.04c.14-.76-.9-1.67-1.64-.77-.73.9.61,1.48.61,1.48.39.19.88.05,1.02-.71ZM6.53,25.33s-.73-.32-.33-.81c.4-.49.96,0,.89.42s-.35.49-.56.39Z"/>
          <path class="cls-25" d="M11.22,25.19c.12-.64-.76-1.41-1.38-.65-.62.76.52,1.25.52,1.25.33.16.74.04.86-.6ZM10.41,25.44s-.62-.27-.28-.68c.34-.41.81,0,.75.35s-.29.41-.47.33Z"/>
          <path class="cls-28" d="M8.68,22.83c.14-.8-.94-1.74-1.71-.8-.77.94.64,1.55.64,1.55.4.2.92.05,1.07-.74ZM7.68,23.13s-.77-.33-.35-.84c.42-.51,1.01,0,.93.44s-.36.51-.58.4Z"/>
          <path class="cls-27" d="M37.19,8.23s.52-.46.6-.88-.8-.5-1.35.3.48,1.47.7,1.23-.03-.49.05-.65Z"/>
          <path class="cls-29" d="M36.37,10.45s.56-1.43-.38-2-1.56.38-1.75,1,.46.13,1.17.03.65.96.97.97Z"/>
          <path class="cls-30" d="M32.87,6.07s-.62.91-.05,1.46,1.15-.02,1.39-.42-.3-.16-.81-.21-.3-.77-.52-.83Z"/>
          <path class="cls-46" d="M32.08,13.32s1.08.48.67,1.37-1.16.8-1.44.55-.31-.54-.31-.54c0,0-.36,1.3.91,1.46s1.81-.91,1.67-1.83-1.29-1.23-1.5-1.01Z"/>
          <path class="cls-32" d="M11.49,24.71s1.08.48.67,1.37c-.41.89-1.16.8-1.44.55s-.31-.54-.31-.54c0,0-.36,1.3.91,1.46s1.81-.91,1.67-1.83-1.29-1.23-1.5-1.01Z"/>
          <path class="cls-47" d="M40.31,13.2s.7,0,.93.6-.36,1.73-1.03,1.52-1.02-1.01-.84-1.06.91.41,1.16.17-.29-1.22-.21-1.23Z"/>
          <path class="cls-45" d="M32.11,17.44s.77-.77,1.68-.33,1.47,2.32.49,2.81-1.86.61-1.72.35,1.09-1.14,1.11-1.69-1.64-1.04-1.56-1.14Z"/>
          <path class="cls-31" d="M28.54,20.19s.77-.77,1.68-.33,1.47,2.32.49,2.81-1.86.61-1.72.35,1.09-1.14,1.11-1.69-1.64-1.04-1.56-1.14Z"/>
          <path class="cls-48" d="M34.74,21.61s-.21-1.07.66-1.58,2.75.06,2.6,1.15c-.14,1.09-.53,1.88-.66,1.63s-.34-1.53-.79-1.86-1.77.79-1.81.67Z"/>
          <path class="cls-36" d="M40.69,19.42s-1.05.31-1.64-.5-.19-2.74.9-2.7,1.92.35,1.68.51-1.5.49-1.78.96.95,1.69.83,1.74Z"/>
          <path class="cls-34" d="M39.03,14.49c-.07-.1-.46-.08-.75.29s-1.35.46-1.4-.12.34-1.5-.17-1.13-.54,1.44-.04,2.27,1.51.45,1.94-.26.41-1.05.41-1.05Z"/>
          <path class="cls-33" d="M35.18,10.37c-.12,0-.35.31-.23.77s-.46,1.34-.95,1.03-.97-1.19-.99-.56.8,1.31,1.77,1.43,1.28-.91.99-1.69-.57-.97-.57-.97Z"/>
          <path class="cls-35" d="M35.44,15.34s.07-.76-.7-.76-.05-.99.64-.52.36,1.46.06,1.29Z"/>
          <path class="cls-42" d="M39.44,13.27c.14-.76-.9-1.67-1.64-.77-.73.9.61,1.48.61,1.48.39.19.88.05,1.02-.71ZM38.49,13.56s-.73-.32-.33-.81c.4-.49.96,0,.89.42s-.35.49-.56.39Z"/>
          <path class="cls-41" d="M36.96,17c.12-.64-.76-1.41-1.38-.65-.62.76.52,1.25.52,1.25.33.16.74.04.86-.6ZM36.15,17.25s-.62-.27-.28-.68c.34-.41.81,0,.75.35s-.29.41-.47.33Z"/>
          <path class="cls-43" d="M38.15,17.46s.52-.46.6-.88-.8-.5-1.35.3.48,1.47.7,1.23-.03-.49.05-.65Z"/>
          <path class="cls-49" d="M31.46,24.09s.52-.46.6-.88-.8-.5-1.35.3.48,1.47.7,1.23-.03-.49.05-.65Z"/>
          <path class="cls-44" d="M28.52,22.07s.52-.46.6-.88-.8-.5-1.35.3.48,1.47.7,1.23-.03-.49.05-.65Z"/>
          <path class="cls-50" d="M28,19.93s.35-.31.41-.59-.54-.34-.91.2.32.99.47.83-.02-.33.03-.43Z"/>
          <path class="cls-12" d="M41.61,12.19s.52-.46.6-.88-.8-.5-1.35.3.48,1.47.7,1.23-.03-.49.05-.65Z"/>
          <path class="cls-13" d="M18.68,19.45s1.77.79,1.1,2.26c-.67,1.47-1.92,1.32-2.38.9s-.51-.88-.51-.88c0,0-.59,2.14,1.51,2.41s2.99-1.49,2.75-3.02-2.13-2.03-2.47-1.67Z"/>
          <path class="cls-14" d="M22.91,16.37s.7,0,.93.6-.36,1.73-1.03,1.52-1.02-1.01-.84-1.06.91.41,1.16.17-.29-1.22-.21-1.23Z"/>
          <path class="cls-11" d="M27.34,22.66s.7,0,.93.6-.36,1.73-1.03,1.52-1.02-1.01-.84-1.06.91.41,1.16.17-.29-1.22-.21-1.23Z"/>
          <path class="cls-19" d="M19.76,17.49c-.07-.1-.46-.08-.75.29s-1.35.46-1.4-.12.34-1.5-.17-1.13-.54,1.44-.04,2.27,1.51.45,1.94-.26.41-1.05.41-1.05Z"/>
          <path class="cls-17" d="M35.21,22.44c-.07-.1-.46-.08-.75.29s-1.35.46-1.4-.12.34-1.5-.17-1.13-.54,1.44-.04,2.27,1.51.45,1.94-.26.41-1.05.41-1.05Z"/>
          <path class="cls-20" d="M17.05,25.91s-.29-.71-.97-.35-.5-.85.33-.76,1,1.13.65,1.11Z"/>
          <path class="cls-18" d="M19.19,21.94s-.29-.71-.97-.35-.5-.85.33-.76,1,1.13.65,1.11Z"/>
          <path class="cls-16" d="M24.96,25.21c.14-.76-.9-1.67-1.64-.77-.73.9.61,1.48.61,1.48.39.19.88.05,1.02-.71ZM24.01,25.5s-.73-.32-.33-.81c.4-.49.96,0,.89.42s-.35.49-.56.39Z"/>
          <path class="cls-15" d="M21.58,19.12c.12-.64-.76-1.41-1.38-.65-.62.76.52,1.25.52,1.25.33.16.74.04.86-.6ZM20.77,19.36s-.62-.27-.28-.68c.34-.41.81,0,.75.35s-.29.41-.47.33Z"/>
          <path class="cls-58" d="M26.49,18c.15-.81-.95-1.77-1.73-.81-.78.95.65,1.57.65,1.57.41.2.94.06,1.08-.75ZM25.48,18.31s-.78-.34-.35-.85c.42-.52,1.02,0,.94.44s-.36.52-.59.41Z"/>
          <path class="cls-59" d="M14.4,20.26c.12-.64-.76-1.41-1.38-.65-.62.76.52,1.25.52,1.25.33.16.74.04.86-.6ZM13.59,20.5s-.62-.27-.28-.68c.34-.41.81,0,.75.35s-.29.41-.47.33Z"/>
          <path class="cls-60" d="M17.08,20.51s.52-.46.6-.88-.8-.5-1.35.3.48,1.47.7,1.23-.03-.49.05-.65Z"/>
          <path class="cls-54" d="M16.26,22.72s.56-1.43-.38-2-1.56.38-1.75,1,.46.13,1.17.03.65.96.97.97Z"/>
          <path class="cls-55" d="M20.2,25.48s.7,0,.93.6-.36,1.73-1.03,1.52-1.02-1.01-.84-1.06.91.41,1.16.17-.29-1.22-.21-1.23Z"/>
          <path class="cls-56" d="M12.37,24.22s-1.05.31-1.64-.5-.19-2.74.9-2.7,1.92.35,1.68.51-1.5.49-1.78.96.95,1.69.83,1.74Z"/>
          <path class="cls-57" d="M18.92,26.76c-.07-.1-.46-.08-.75.29s-1.35.46-1.4-.12.34-1.5-.17-1.13-.54,1.44-.04,2.27,1.51.45,1.94-.26.41-1.05.41-1.05Z"/>
          <path class="cls-51" d="M15.07,22.64c-.12,0-.35.31-.23.77s-.46,1.34-.95,1.03-.97-1.19-.99-.56.8,1.31,1.77,1.43,1.28-.91.99-1.69-.57-.97-.57-.97Z"/>
          <path class="cls-52" d="M15.33,27.62s.07-.76-.7-.76-.05-.99.64-.52.36,1.46.06,1.29Z"/>
          <path class="cls-53" d="M19.33,25.54c.14-.76-.9-1.67-1.64-.77-.73.9.61,1.48.61,1.48.39.19.88.05,1.02-.71ZM18.38,25.83s-.73-.32-.33-.81c.4-.49.96,0,.89.42s-.35.49-.56.39Z"/>
          <path class="cls-66" d="M9.82,22.25s.52-.46.6-.88-.8-.5-1.35.3c-.55.8.48,1.47.7,1.23s-.03-.49.05-.65Z"/>
          <path class="cls-67" d="M21.5,24.47s.52-.46.6-.88-.8-.5-1.35.3.48,1.47.7,1.23-.03-.49.05-.65Z"/>
          <path class="cls-68" d="M37.49,19.94s.56-1.43-.38-2-1.56.38-1.75,1,.46.13,1.17.03.65.96.97.97Z"/>
          <path class="cls-62" d="M33.82,15.3s-.62.91-.05,1.46,1.15-.02,1.39-.42-.3-.16-.81-.21-.3-.77-.52-.83Z"/>
          <path class="cls-63" d="M21.86,21.45s-.44.65-.04,1.04.82-.01.99-.3-.21-.12-.58-.15-.21-.55-.37-.59Z"/>
          <path class="cls-64" d="M31.01,17.07s-.62.91-.05,1.46,1.15-.02,1.39-.42-.3-.16-.81-.21-.3-.77-.52-.83Z"/>
          <path class="cls-65" d="M23.2,20.98c-.09-.03.28-1.03.64-1.43s-.69-.49-1.21.21.51,1.37.53,1.55-.17,1.21.58,1.95,2.01.51,2.78-.92.72-2.24-.09-2.63-2.03-.78-2.08-.5,1.59.67,1.49,1.96,0,2.09-1.28,1.69-1.02-1.75-1.36-1.89Z"/>
          <path class="cls-61" d="M27.35,16.76c-.06-.02.2-.72.45-1s-.48-.35-.85.14.35.96.37,1.09-.12.85.4,1.37,1.41.35,1.95-.64.51-1.57-.07-1.84-1.42-.54-1.46-.35,1.11.47,1.04,1.37,0,1.46-.89,1.19-.71-1.23-.95-1.32Z"/>
        </g>
      </g>
    </g>
  </g>
</svg>