<?xml version="1.0" encoding="UTF-8"?>
<svg id="Layer_2" data-name="Layer 2" xmlns="http://www.w3.org/2000/svg" xmlns:xlink="http://www.w3.org/1999/xlink" viewBox="0 0 16.6 10.66">
  <defs>
    <style>
      .cls-1 {
        fill: none;
      }

      .cls-2 {
        fill: #522c91;
      }

      .cls-3 {
        fill: #fafafa;
      }

      .cls-4 {
        clip-path: url(#clippath);
      }
    </style>
    <clipPath id="clippath">
      <rect class="cls-1" width="16.6" height="10.66"/>
    </clipPath>
  </defs>
  <g id="Layer_1-2" data-name="Layer 1">
    <g class="cls-4">
      <g>
        <path class="cls-3" d="M5.91,9.44c-1.07,0-2.2-.06-3.44-.18-.16-.01-.29-.12-.32-.28-.04-.15.02-.31.14-.4C5.62,6.22,7.75,3.78,8.99.89c.07-.16.15-.32.24-.48.08-.14.15-.29.21-.43-1.04-2.21-1.57-4.55-1.57-6.96,0-9.05,7.36-16.4,16.4-16.4h197.58c9.04,0,16.4,7.36,16.4,16.4s-7.36,16.4-16.4,16.4H24.28c-2.92,0-5.8-.79-8.33-2.29-.02,0-.04,0-.07,0-.31,0-.63.09-1.01.3-2.57,1.35-5.5,2.01-8.96,2.01Z"/>
        <path class="cls-2" d="M221.86-23.01c8.85,0,16.03,7.18,16.03,16.03s-7.18,16.03-16.03,16.03H24.28c-3.01,0-5.81-.84-8.22-2.28-.06,0-.12,0-.18,0-.38,0-.76.11-1.19.34-2.78,1.46-5.72,1.97-8.79,1.97-1.12,0-2.26-.07-3.41-.18,2.96-2.09,5.41-4.53,6.83-7.85.15-.36.39-.71.52-1.07-1.01-2.1-1.6-4.45-1.6-6.94,0-8.85,7.18-16.03,16.03-16.03h197.58M221.86-23.75H24.28c-9.25,0-16.78,7.53-16.78,16.78,0,2.41.51,4.75,1.53,6.96-.04.08-.09.17-.13.26-.09.17-.18.34-.25.51-1.21,2.83-3.3,5.22-6.58,7.54-.25.18-.37.5-.29.8.08.3.34.52.65.55,1.26.12,2.4.18,3.48.18,3.52,0,6.51-.67,9.14-2.05.31-.16.57-.25.8-.25,2.57,1.5,5.48,2.29,8.43,2.29h197.58c9.25,0,16.78-7.53,16.78-16.78s-7.53-16.78-16.78-16.78h0Z"/>
      </g>
    </g>
  </g>
</svg>