<?xml version="1.0" encoding="UTF-8"?>
<svg xmlns="http://www.w3.org/2000/svg" xmlns:xlink="http://www.w3.org/1999/xlink" viewBox="0 0 13.7 12.64">
  <defs>
    <style>
      .cls-1 {
        fill: url(#linear-gradient-2);
      }

      .cls-2 {
        fill: url(#linear-gradient);
      }

      .cls-3 {
        isolation: isolate;
      }

      .cls-4 {
        fill: url(#linear-gradient-3);
      }

      .cls-4, .cls-5 {
        mix-blend-mode: multiply;
        opacity: .57;
      }

      .cls-5 {
        fill: url(#linear-gradient-4);
      }

      .cls-6 {
        fill: #cff0ff;
      }

      .cls-7 {
        fill: #0068c4;
      }

      .cls-8 {
        fill: #a6e3ff;
      }

      .cls-9 {
        fill: #3ab4de;
      }
    </style>
    <linearGradient id="linear-gradient" x1="9.33" y1="4.31" x2="10.81" y2="14.79" gradientUnits="userSpaceOnUse">
      <stop offset="0" stop-color="#97dbf8"/>
      <stop offset="1" stop-color="#70d1f9"/>
    </linearGradient>
    <linearGradient id="linear-gradient-2" x1="4.2" y1="4.68" x2="2.18" y2="15.04" gradientUnits="userSpaceOnUse">
      <stop offset="0" stop-color="#c4e8f8"/>
      <stop offset="1" stop-color="#b1e4f9"/>
    </linearGradient>
    <linearGradient id="linear-gradient-3" x1="5.88" y1="1.27" x2="1.49" y2=".07" gradientUnits="userSpaceOnUse">
      <stop offset=".04" stop-color="#003073"/>
      <stop offset=".47" stop-color="#003273" stop-opacity=".57"/>
      <stop offset="1" stop-color="#003673" stop-opacity="0"/>
    </linearGradient>
    <linearGradient id="linear-gradient-4" x1="424.14" y1="1.27" x2="419.76" y2=".07" gradientTransform="translate(432.11) rotate(-180) scale(1 -1)" xlink:href="#linear-gradient-3"/>
  </defs>
  <g class="cls-3">
    <g id="Layer_2" data-name="Layer 2">
      <g id="Layer_1-2" data-name="Layer 1">
        <g>
          <polygon class="cls-2" points="13.05 3.67 13.05 10.38 11.7 10.86 11.16 11.05 9.74 11.55 8.75 11.91 6.7 12.64 6.7 5.88 9.74 4.82 11.16 4.33 12.68 3.8 13.05 3.67"/>
          <polygon class="cls-9" points="11.16 4.33 11.16 11.05 10.7 11.21 9.74 11.55 9.74 4.82 9.93 4.76 10.06 4.71 10.9 4.42 11.16 4.33"/>
          <polygon class="cls-1" points="6.7 5.88 6.7 12.64 4.48 11.85 3.91 11.65 2.5 11.14 1.79 10.89 .35 10.38 .35 3.67 .98 3.89 2.5 4.42 3.91 4.91 6.7 5.88"/>
          <polygon class="cls-9" points="3.91 4.91 3.91 11.65 2.99 11.32 2.5 11.14 2.5 4.42 2.77 4.51 3.42 4.74 3.91 4.91"/>
          <g>
            <polygon class="cls-8" points="13.7 3.3 6.85 5.75 0 3.3 .87 3.05 2.23 2.67 3.2 2.4 6.85 1.38 10.82 2.49 11.98 2.81 12.82 3.05 13.7 3.3"/>
            <polygon class="cls-6" points="6.85 5.49 6.85 6.95 6.25 6.75 5.14 6.37 3.91 5.95 2.5 5.46 .45 4.76 0 4.61 0 3.3 2.5 4.1 3.91 4.55 6.85 5.49"/>
            <polygon class="cls-6" points="13.7 3.3 13.7 4.61 13.12 4.8 11.72 5.28 11.16 5.47 9.74 5.96 7.27 6.81 6.85 6.95 6.85 5.49 9.74 4.56 11.16 4.11 13.7 3.3"/>
            <polygon class="cls-9" points="10.98 3.95 11.15 3.9 7.6 2.8 6.82 3.1 6.04 2.8 2.5 3.9 2.5 5.85 3.91 6.34 3.91 4.35 6.82 3.34 9.73 4.35 9.74 4.35 9.74 6.36 10.44 6.11 11.16 5.87 11.16 3.91 10.98 3.95"/>
          </g>
          <g>
            <g>
              <path class="cls-9" d="M6.64,3.14s-.04.04-.06.07c-.19.18-.59.33-1.06.42-.61.13-1.33.16-1.84.06-.96-.18-1.1-.62-.89-1.33.22-.7.05-1.29.07-1.33,0-.02.2.04.4.09-.2-.07-.4-.14-.44-.18-.08-.08-.22-.69-.04-.81.02-.01.04-.02.06-.03.29-.12,1.23-.29,2.34.32.33.18.6.4.82.63.57.59.77,1.21.77,1.21,0,0,.22.42-.13.87Z"/>
              <path class="cls-7" d="M6.6,2.82c-.63-.04-1.27-.15-1.79-.48.56.26,1.19.27,1.78.23v.25Z"/>
              <path class="cls-4" d="M6.49,1.97s-.89-1.45-2.44-1.71-1.44.51.18.78,1.98.9,2.26.93Z"/>
            </g>
            <g>
              <path class="cls-9" d="M7.21,3.14s.04.04.06.07c.19.18.59.33,1.06.42.61.13,1.33.16,1.84.06.96-.18,1.1-.62.89-1.33-.22-.7-.05-1.29-.07-1.33,0-.02-.2.04-.4.09.2-.07.4-.14.44-.18.08-.08.22-.69.04-.81-.02-.01-.04-.02-.06-.03-.29-.12-1.23-.29-2.34.32-.33.18-.6.4-.82.63-.57.59-.77,1.21-.77,1.21,0,0-.22.42.13.87Z"/>
              <path class="cls-7" d="M7.19,2.46c.66,0,1.32-.02,1.98-.11-.64.18-1.3.29-1.97.36v-.25Z"/>
              <path class="cls-5" d="M7.35,1.97s.89-1.45,2.44-1.71,1.44.51-.18.78-1.98.9-2.26.93Z"/>
            </g>
            <path class="cls-9" d="M7.49,2.61c0,.07,0,.13-.02.19-.07.37-.31.65-.61.65-.34,0-.62-.38-.62-.84s.28-.84.62-.84c.04,0,.08,0,.12.02.29.08.5.42.5.82Z"/>
          </g>
        </g>
      </g>
    </g>
  </g>
</svg>