<?xml version="1.0" encoding="UTF-8"?>
<svg id="Layer_2" data-name="Layer 2" xmlns="http://www.w3.org/2000/svg" xmlns:xlink="http://www.w3.org/1999/xlink" viewBox="0 0 12.21 21.84">
  <defs>
    <style>
      .cls-1 {
        fill: url(#linear-gradient-2);
      }

      .cls-2 {
        fill: url(#linear-gradient);
      }

      .cls-3 {
        fill: #fff;
      }
    </style>
    <linearGradient id="linear-gradient" x1="4.29" y1="14.27" x2="5.32" y2="23.12" gradientUnits="userSpaceOnUse">
      <stop offset="0" stop-color="#ffbfd7"/>
      <stop offset="1" stop-color="#ff70b5"/>
    </linearGradient>
    <linearGradient id="linear-gradient-2" x1="281.66" y1="-269.49" x2="282.31" y2="-263.97" gradientTransform="translate(162.6 359.92) rotate(-69.71)" gradientUnits="userSpaceOnUse">
      <stop offset="0" stop-color="#ffeca1"/>
      <stop offset="1" stop-color="#ffc766"/>
    </linearGradient>
  </defs>
  <g id="Layer_1-2" data-name="Layer 1">
    <g>
      <path class="cls-2" d="M4.96,21.62s-.07,0-.1-.02c-.16-.08-3.87-2.02-4.62-4.82-.03-.11.02-.22.13-.27.02-.01,2.19-1.03,2.97-2.66.04-.08.11-.13.2-.13h.01c.08,0,.16.04.2.11.02.03,1.86,3.07,5.11,3.63.07.01.14.06.17.13.03.07.03.15,0,.21-.06.11-1.59,2.82-3.96,3.81-.03.01-.06.02-.09.02Z"/>
      <path class="cls-3" d="M3.54,13.94s1.87,3.15,5.26,3.74c0,0-1.52,2.74-3.84,3.71,0,0-3.78-1.94-4.5-4.68,0,0,2.25-1.04,3.08-2.77M3.54,13.48s-.01,0-.02,0c-.17,0-.32.11-.39.26-.75,1.57-2.84,2.54-2.86,2.55-.2.09-.31.32-.25.53.77,2.9,4.57,4.88,4.74,4.97.07.03.14.05.21.05.06,0,.12-.01.18-.04,2.44-1.02,4-3.79,4.07-3.91.07-.13.08-.29.01-.42-.06-.13-.19-.23-.33-.25-3.14-.54-4.93-3.49-4.95-3.52-.08-.14-.23-.22-.39-.22h0Z"/>
    </g>
    <g>
      <path class="cls-1" d="M8.41,5.19c-.08,0-.17,0-.25-.01-.11-.01-.2-.1-.21-.21,0-.01-.12-1.41-.85-2.17-.06-.06-.08-.15-.05-.23.03-.08.09-.14.18-.16.02,0,2.07-.4,3.05-2.07.04-.06.1-.11.18-.11,0,0,.01,0,.02,0,.07,0,.13.03.17.08.05.06,1.27,1.51,1.34,3.07,0,.07-.02.13-.07.18-.07.07-1.8,1.63-3.5,1.63Z"/>
      <path class="cls-3" d="M10.46.46s1.22,1.43,1.29,2.94c0,0-1.71,1.57-3.34,1.57-.08,0-.15,0-.23-.01,0,0-.12-1.48-.92-2.31,0,0,2.16-.4,3.2-2.18M10.46,0s-.03,0-.04,0c-.15.01-.28.1-.35.23-.92,1.58-2.87,1.96-2.89,1.96-.17.03-.3.15-.35.31-.05.16-.01.34.11.46.67.7.79,2.02.79,2.03.02.22.19.4.41.42.09,0,.18.01.27.01,1.79,0,3.58-1.62,3.65-1.69.1-.09.15-.22.15-.36-.07-1.65-1.34-3.15-1.4-3.21-.09-.1-.21-.16-.35-.16h0Z"/>
    </g>
  </g>
</svg>