<?xml version="1.0" encoding="UTF-8"?>
<svg id="Layer_2" data-name="Layer 2" xmlns="http://www.w3.org/2000/svg" xmlns:xlink="http://www.w3.org/1999/xlink" viewBox="0 0 10.74 10.82">
  <defs>
    <style>
      .cls-1 {
        fill: #fce883;
      }

      .cls-2 {
        fill: url(#linear-gradient-2);
      }

      .cls-3 {
        fill: #fcd517;
      }

      .cls-4 {
        fill: url(#linear-gradient);
      }

      .cls-5 {
        fill: #d67003;
      }

      .cls-6 {
        fill: #ed8203;
      }

      .cls-7 {
        fill: #ffab03;
      }

      .cls-8 {
        fill: #e67902;
      }
    </style>
    <linearGradient id="linear-gradient" x1="1473.09" y1="167.19" x2="1476.33" y2="170.44" gradientTransform="translate(1487.46 -55.56) rotate(-175.87) scale(1 -1)" gradientUnits="userSpaceOnUse">
      <stop offset="0" stop-color="#ffe53b"/>
      <stop offset="1" stop-color="#ffa200"/>
    </linearGradient>
    <linearGradient id="linear-gradient-2" x1="874.23" y1="169.8" x2="875.97" y2="171.55" gradientTransform="translate(-846.88 -250.5) rotate(5.37)" xlink:href="#linear-gradient"/>
  </defs>
  <g id="Layer_1-2" data-name="Layer 1">
    <g>
      <path class="cls-7" d="M.85,7.42c.5.85,1.66,1.8,2.6,2.04,3.49.85,4.73-1.02,4.73-1.02-.02.11-.26.75-.3.86-.49,1.41-2.63,1.95-4.78,1.2C.95,9.74-.39,7.99.1,6.58c.03-.1.25-.77.3-.85,0,0,.04,1,.45,1.69Z"/>
      <g>
        <path class="cls-8" d="M7.73,8.87c-.09.27-.15.56-.25.83-.04.11-.08.23-.12.35-.12.11-.26.22-.41.31.02-.07.04-.13.07-.2.13-.35.28-.68.37-1.04.14-.08.25-.16.34-.24Z"/>
        <path class="cls-8" d="M3.97,10.72c-.14-.03-.28-.06-.42-.09.14-.35.33-.7.43-1.06.12.02.22.03.33.05-.12.37-.23.74-.35,1.11Z"/>
        <path class="cls-8" d="M6.02,10.42c-.03.1-.06.2-.09.31-.12.02-.24.04-.36.06.14-.4.29-.79.42-1.19.11-.02.22-.04.32-.07-.1.3-.2.59-.29.89Z"/>
        <path class="cls-8" d="M6.64,10.3c-.03.08-.05.16-.07.24-.08.03-.16.06-.25.09.12-.4.22-.82.36-1.2.12-.04.23-.09.34-.13-.09.35-.26.66-.37,1Z"/>
        <path class="cls-8" d="M5.24,10.81c-.09,0-.19,0-.29,0,.16-.38.3-.75.38-1.16.11,0,.22-.01.33-.02-.14.39-.28.79-.42,1.17Z"/>
        <path class="cls-8" d="M4.64,10.81c-.12,0-.24-.02-.36-.04.11-.37.23-.75.35-1.12.14.01.27.01.4.02-.08.39-.23.77-.39,1.14Z"/>
        <path class="cls-8" d="M3.69,9.51c-.1.35-.28.69-.42,1.03-.06-.02-.12-.03-.17-.05-.07-.02-.14-.05-.21-.08.11-.34.21-.69.35-1.02.07.02.13.05.2.07.08.02.17.04.25.05Z"/>
        <path class="cls-8" d="M1.83,8.53c-.13.35-.26.71-.4,1.06-.1-.08-.2-.16-.29-.25.02-.06.04-.12.06-.17.12-.3.23-.6.34-.91.09.09.19.18.29.26Z"/>
        <path class="cls-8" d="M1.31,8.02c-.13.35-.27.7-.39,1.05,0,.02,0,.03-.01.04-.08-.09-.16-.17-.23-.27.03-.11.07-.22.11-.34.09-.26.2-.51.29-.77.07.1.15.19.24.29Z"/>
        <path class="cls-8" d="M.85,7.42s0,0,0,0c-.1.29-.22.56-.32.86-.03.09-.05.18-.08.27-.08-.12-.14-.24-.2-.37.08-.23.15-.46.24-.69.06-.16.12-.32.17-.47.05.14.12.28.19.4Z"/>
        <path class="cls-8" d="M.14,7.54c-.02.06-.04.11-.06.17-.05-.18-.07-.35-.07-.53.15-.38.3-.76.42-1.15.01.11.03.24.06.38-.06.39-.21.76-.35,1.13Z"/>
        <path class="cls-8" d="M1.98,9.96c-.1-.06-.2-.12-.29-.18.13-.35.26-.69.39-1.05.1.08.2.15.3.22-.13.34-.27.67-.41,1.01Z"/>
        <path class="cls-8" d="M2.62,10.29c-.13-.06-.26-.12-.38-.18.13-.33.27-.66.4-1,.11.06.21.11.32.16-.14.33-.24.68-.35,1.02Z"/>
      </g>
      <path class="cls-3" d="M5.18,4.52c2.15.75,3.49,2.5,3,3.91-.49,1.41-2.63,1.95-4.78,1.2C1.25,8.88-.09,7.13.4,5.72c.49-1.41,2.63-1.95,4.78-1.2Z"/>
      <path class="cls-4" d="M5.03,4.96c1.72.59,2.83,1.86,2.5,2.82-.34.97-2,1.26-3.71.67-1.72-.6-2.83-1.86-2.5-2.83.34-.96,2-1.26,3.71-.67Z"/>
      <path class="cls-6" d="M4.92,5.28c-1.62-.56-3.19-.33-3.64.51,0-.06.02-.11.04-.17.34-.96,2-1.26,3.71-.67,1.72.59,2.83,1.86,2.5,2.82-.02.06-.04.11-.07.16.17-.94-.92-2.1-2.54-2.66Z"/>
      <g>
        <path class="cls-5" d="M3.59,6.12l.42.58c-.09,0-.18,0-.27,0-.09,0-.17.01-.25.02-.08.01-.15.03-.21.04-.06.02-.11.05-.15.08-.04.03-.06.07-.06.12,0,.05.01.1.05.17.05.1.14.2.25.3.12.1.25.19.42.27.17.09.35.16.56.23.21.07.43.12.67.16l.15.2s.06.06.12.09c.06.03.13.05.2.06l.35.05.07-.21-.31-.12c.22,0,.43,0,.61-.02.19-.02.33-.06.44-.11l.07-.21s-.57-.09-.61-.11c-.05-.02-.1-.03-.14-.04-.05,0-.09,0-.14,0-.05,0-.09.01-.14.03-.05,0-.1.02-.17.03-.06,0-.13.01-.22.01l-.44-.61c.13,0,.27,0,.4-.02.13,0,.24-.03.33-.06.09-.03.15-.08.18-.15.03-.06.07-.21.07-.21-.04-.08-.24-.22-.35-.31-.11-.09-.24-.17-.41-.25-.16-.08-.34-.15-.55-.22-.21-.07-.43-.12-.67-.16l-.13-.18s-.06-.06-.12-.09c-.06-.03-.4-.31-.47-.32l-.07.21.23.32c-.21-.01-.62-.11-.76-.09l-.07.21.33.21c.05.03.1.05.14.07.04.02.09.03.14.04.03,0,.07,0,.1,0,.04,0,.08,0,.12,0,.04,0,.09-.01.14-.01.05,0,.11,0,.16,0ZM4.76,6.62c-.06.03-.14.05-.24.06l-.36-.49c.1.02.18.04.26.07.07.02.13.05.19.07.05.03.09.05.12.08.03.03.06.06.07.08.04.06.02.11-.03.14ZM4.1,7.21c.06-.03.14-.04.25-.05l.39.53c-.35-.07-.57-.19-.67-.35-.04-.06-.02-.1.03-.13Z"/>
        <path class="cls-1" d="M3.66,5.91l.42.58c-.09,0-.18,0-.27,0-.09,0-.17.01-.25.02-.08,0-.15.02-.21.04-.06.02-.11.04-.15.08-.03.03-.06.07-.06.12,0,.05.01.1.05.17.05.1.14.2.25.3.11.1.26.19.42.27.17.09.35.16.56.23.21.07.43.12.67.16l.15.2s.06.06.12.09c.06.03.13.05.2.06l.35.05-.24-.34c.22.01.43,0,.62-.01.18-.02.33-.06.44-.11l-.41-.26s-.08-.04-.13-.06c-.05-.02-.1-.03-.14-.04-.05,0-.1,0-.14,0-.04,0-.09.01-.14.03-.05,0-.11.02-.17.03-.06,0-.13.01-.22.01l-.45-.61c.14,0,.27,0,.4-.02.13,0,.24-.03.33-.06.09-.03.15-.08.18-.15.03-.07.02-.15-.05-.27-.05-.08-.12-.17-.23-.25-.11-.09-.25-.17-.41-.25-.16-.08-.34-.15-.55-.22-.21-.07-.43-.12-.67-.15l-.13-.18s-.06-.06-.12-.09c-.06-.03-.12-.05-.2-.06l-.35-.05.23.32c-.21,0-.38,0-.51.03-.13.03-.24.06-.32.1l.33.2s.1.06.14.07c.04.02.09.03.14.03.03,0,.06,0,.1,0,.04,0,.08,0,.12-.01.04,0,.09,0,.14-.01.05,0,.11,0,.16,0ZM4.84,6.41c-.06.03-.14.05-.25.06l-.36-.49c.1.02.18.04.26.07.08.02.14.05.19.07.05.03.09.05.13.08.03.03.05.05.07.08.03.06.02.11-.03.13ZM4.17,7c.05-.02.14-.04.25-.05l.39.54c-.35-.07-.57-.19-.67-.35-.03-.06-.02-.11.03-.13Z"/>
      </g>
    </g>
    <g>
      <path class="cls-7" d="M10.25,1.97c-.34.4-1.04.81-1.56.85-1.93.14-2.42-.96-2.42-.96,0,.06.07.42.08.48.14.79,1.22,1.27,2.43,1.06,1.21-.21,2.08-1.01,1.94-1.81,0-.05-.06-.43-.08-.48,0,0-.11.53-.39.86Z"/>
      <g>
        <path class="cls-8" d="M6.47,2.13c.02.15.03.31.06.46.01.06.02.13.03.19.06.07.12.14.19.2,0-.04-.01-.07-.02-.11-.04-.2-.09-.39-.1-.59-.07-.05-.12-.11-.16-.16Z"/>
        <path class="cls-8" d="M8.3,3.44c.08,0,.15,0,.23-.01-.04-.2-.11-.4-.14-.6-.06,0-.12,0-.18,0,.03.21.06.41.09.62Z"/>
        <path class="cls-8" d="M7.24,3.1c0,.06.01.11.02.17.06.02.12.04.19.06-.04-.22-.08-.45-.12-.67-.06-.02-.11-.04-.16-.06.03.17.05.33.08.5Z"/>
        <path class="cls-8" d="M6.92,2.99s.01.09.02.13c.04.03.08.05.12.07-.03-.23-.04-.45-.08-.67-.06-.03-.12-.07-.17-.1.02.19.08.37.11.57Z"/>
        <path class="cls-8" d="M7.62,3.38s.1.02.15.03c-.05-.21-.09-.43-.1-.65-.06-.01-.12-.03-.17-.04.04.22.08.44.12.66Z"/>
        <path class="cls-8" d="M7.94,3.43c.06,0,.13.01.2.01-.03-.21-.05-.42-.09-.63-.07,0-.14-.02-.21-.03,0,.22.06.43.11.64Z"/>
        <path class="cls-8" d="M8.55,2.83c.02.2.09.39.13.58.03,0,.07,0,.1-.01.04,0,.08-.02.12-.02-.03-.19-.05-.38-.09-.57-.04,0-.08.02-.11.02-.05,0-.09,0-.14,0Z"/>
        <path class="cls-8" d="M9.63,2.47c.04.2.08.4.12.6.06-.03.12-.07.18-.11,0-.03,0-.07-.02-.1-.04-.17-.07-.34-.1-.51-.06.04-.12.08-.18.11Z"/>
        <path class="cls-8" d="M9.95,2.25c.04.2.08.39.11.59,0,0,0,.02,0,.02.05-.04.1-.08.15-.12,0-.06-.02-.12-.03-.19-.02-.15-.06-.29-.09-.44-.05.04-.1.09-.15.13Z"/>
        <path class="cls-8" d="M10.25,1.97s0,0,0,0c.03.16.07.32.09.48,0,.05.01.1.02.15.05-.06.1-.12.14-.18-.02-.13-.04-.26-.07-.39-.02-.09-.04-.18-.05-.27-.04.07-.09.14-.14.2Z"/>
        <path class="cls-8" d="M10.62,2.1s.01.06.02.1c.04-.09.07-.18.08-.27-.05-.22-.09-.43-.12-.65-.02.06-.04.12-.07.19,0,.21.04.42.09.63Z"/>
        <path class="cls-8" d="M9.43,3.22c.06-.02.11-.05.17-.07-.04-.2-.08-.39-.12-.59-.06.03-.12.06-.18.09.04.19.08.38.13.57Z"/>
        <path class="cls-8" d="M9.06,3.34c.07-.02.15-.04.22-.06-.04-.19-.09-.38-.13-.56-.06.02-.12.04-.18.06.04.19.07.38.09.57Z"/>
      </g>
      <path class="cls-3" d="M8.21.05c-1.21.21-2.08,1.02-1.94,1.81.14.79,1.22,1.27,2.43,1.06,1.21-.21,2.08-1.01,1.94-1.81-.14-.79-1.22-1.27-2.43-1.06Z"/>
      <path class="cls-2" d="M8.25.29c-.96.16-1.67.74-1.58,1.28.09.54.95.85,1.91.68.96-.17,1.67-.74,1.58-1.28-.09-.54-.95-.85-1.91-.68Z"/>
      <path class="cls-6" d="M8.28.47c.91-.16,1.72.11,1.89.59,0-.03,0-.06,0-.09-.09-.54-.95-.85-1.91-.68-.96.16-1.67.74-1.58,1.28,0,.03.01.06.02.09,0-.51.67-1.03,1.58-1.19Z"/>
      <g>
        <path class="cls-5" d="M9,1.06s.05.01.07.02c.02,0,.04.01.06.02.02,0,.04,0,.05,0,.03,0,.05,0,.08,0,.02,0,.05-.01.08-.03l.19-.08-.02-.12c-.07-.03-.3,0-.41-.02l.15-.15-.02-.12s-.24.12-.28.13c-.03.01-.06.02-.07.04l-.09.08c-.13,0-.26,0-.37.02-.12.02-.22.04-.31.07-.09.03-.17.06-.24.1-.07.04-.18.09-.21.14,0,0,0,.08.02.12.01.04.04.07.08.09.04.03.1.05.17.06.07.02.14.03.21.04l-.29.28s-.08-.02-.12-.03c-.03-.01-.06-.02-.09-.03-.03-.01-.05-.02-.07-.03-.02,0-.05-.01-.07-.01-.03,0-.05,0-.08,0-.03,0-.32,0-.34,0l.02.12c.05.04.13.07.22.1.1.03.21.05.32.06l-.18.04.02.12h.19s.08,0,.11,0c.03,0,.06-.02.07-.04l.1-.1c.13,0,.26,0,.37-.03.12-.02.22-.04.32-.07.1-.03.18-.07.25-.11.07-.04.12-.09.16-.13.03-.03.04-.06.04-.09,0-.03,0-.05-.02-.07-.02-.02-.04-.04-.07-.05-.03-.02-.07-.03-.11-.04-.04-.01-.08-.02-.13-.03-.05,0-.09-.02-.14-.03l.27-.27s.06.01.09.02ZM8.24,1.12s.03-.03.04-.04c.02-.01.04-.02.07-.03.03-.01.06-.02.1-.02.04,0,.09,0,.14-.01l-.24.23c-.06-.01-.1-.03-.12-.05-.03-.02-.03-.04,0-.07ZM8.55,1.64c-.06.08-.19.12-.38.13l.25-.25c.06.01.1.03.13.05.03.02.03.04,0,.07Z"/>
        <path class="cls-1" d="M8.97.94s.05.01.07.02c.02,0,.04.01.06.02.02,0,.04,0,.05,0,.03,0,.05,0,.08,0,.02,0,.05-.01.08-.03l.19-.08s-.09-.06-.16-.08c-.07-.02-.16-.05-.27-.06l.15-.15h-.19s-.07,0-.11,0c-.03.01-.06.02-.07.04l-.09.08c-.13,0-.26,0-.37.02-.11.02-.22.04-.31.07-.09.03-.17.06-.24.1-.06.04-.11.07-.15.11-.04.05-.06.1-.05.14.01.04.04.07.08.09.05.03.1.05.17.06.07.02.14.03.21.04l-.29.29s-.08-.02-.11-.03c-.03-.01-.06-.02-.09-.03-.03-.01-.05-.02-.07-.03-.02,0-.05-.01-.07-.01-.03,0-.05,0-.08,0-.03,0-.05.01-.07.02l-.24.1c.05.04.13.07.22.1.1.03.21.05.33.06l-.16.16h.19s.08,0,.11,0c.03-.01.06-.02.07-.04l.1-.09c.13,0,.26,0,.37-.03.12-.02.22-.04.32-.07.09-.03.18-.07.25-.11.07-.04.12-.09.16-.14.03-.03.04-.06.04-.09,0-.03,0-.05-.02-.07-.02-.02-.04-.04-.07-.05-.03-.02-.07-.03-.11-.04-.04-.01-.08-.02-.13-.03-.05,0-.09-.02-.14-.03l.27-.27s.06.01.09.02ZM8.22,1.01s.03-.03.04-.04c.02-.01.04-.02.07-.03.03,0,.06-.02.1-.02.04,0,.09-.01.14-.01l-.23.23c-.06-.02-.1-.03-.13-.05-.03-.02-.03-.04,0-.07ZM8.53,1.52c-.06.08-.19.12-.39.13l.25-.25c.06.01.1.03.13.05.03.02.03.04,0,.07Z"/>
      </g>
    </g>
  </g>
</svg>