<?xml version="1.0" encoding="UTF-8"?>
<svg id="Layer_2" data-name="Layer 2" xmlns="http://www.w3.org/2000/svg" viewBox="0 0 101.96 51.06">
  <defs>
    <style>
      .cls-1 {
        fill: #9b74ed;
      }

      .cls-2 {
        fill: #f7ed88;
      }
    </style>
  </defs>
  <g id="Layer_1-2" data-name="Layer 1">
    <g>
      <polygon class="cls-2" points="10.33 51.06 4.16 51.06 0 46.33 0 38.87 10.33 51.06"/>
      <polygon class="cls-1" points="23.1 51.06 16.92 51.06 0 31.27 0 23.8 23.1 51.06"/>
      <polygon class="cls-2" points="34.21 51.06 28.03 51.06 0 18.16 0 10.7 34.21 51.06"/>
      <polygon class="cls-2" points="47.1 51.06 40.92 51.06 0 2.95 0 0 3.83 0 47.1 51.06"/>
      <polygon class="cls-1" points="60.12 51.06 53.94 51.06 10.67 0 16.85 0 60.12 51.06"/>
      <polygon class="cls-2" points="73.14 51.06 66.97 51.06 23.69 0 29.87 0 73.14 51.06"/>
      <polygon class="cls-1" points="86.16 51.06 79.99 51.06 36.71 0 42.89 0 86.16 51.06"/>
      <polygon class="cls-2" points="99.18 51.06 93.01 51.06 49.73 0 55.91 0 99.18 51.06"/>
      <polygon class="cls-1" points="101.96 40.47 101.96 47.95 61.48 0 67.66 0 101.96 40.47"/>
      <polygon class="cls-2" points="101.96 25.11 101.96 32.58 74.5 0 80.68 0 101.96 25.11"/>
      <polygon class="cls-1" points="101.96 11.55 101.96 19.02 85.99 0 92.17 0 101.96 11.55"/>
      <polygon class="cls-2" points="101.96 0 101.96 4.56 98.24 0 101.96 0"/>
    </g>
  </g>
</svg>