<?xml version="1.0" encoding="UTF-8"?>
<svg xmlns="http://www.w3.org/2000/svg" xmlns:xlink="http://www.w3.org/1999/xlink" viewBox="0 0 16.7 12.6">
  <defs>
    <style>
      .cls-1 {
        fill: url(#linear-gradient-8);
      }

      .cls-2 {
        fill: url(#linear-gradient-7);
      }

      .cls-3 {
        fill: url(#linear-gradient-5);
      }

      .cls-4 {
        fill: url(#linear-gradient-6);
      }

      .cls-5 {
        fill: url(#linear-gradient-9);
      }

      .cls-6 {
        fill: url(#linear-gradient-4);
      }

      .cls-7 {
        fill: url(#linear-gradient-3);
      }

      .cls-8 {
        fill: url(#linear-gradient-2);
      }

      .cls-9 {
        fill: url(#linear-gradient);
      }

      .cls-10 {
        isolation: isolate;
      }

      .cls-11 {
        fill: #293328;
        mix-blend-mode: overlay;
        opacity: .23;
      }

      .cls-12 {
        fill: url(#linear-gradient-10);
      }
    </style>
    <linearGradient id="linear-gradient" x1="-314.26" y1="263.27" x2="-317.23" y2="274.14" gradientTransform="translate(169.48 -374.57) rotate(-27.47)" gradientUnits="userSpaceOnUse">
      <stop offset="0" stop-color="#c3a6ff"/>
      <stop offset="1" stop-color="#9b74ed"/>
    </linearGradient>
    <linearGradient id="linear-gradient-2" x1="-317.49" y1="262.39" x2="-320.46" y2="273.26" xlink:href="#linear-gradient"/>
    <linearGradient id="linear-gradient-3" x1="-319.7" y1="261.78" x2="-322.67" y2="272.66" xlink:href="#linear-gradient"/>
    <linearGradient id="linear-gradient-4" x1="-311.36" y1="264.06" x2="-314.33" y2="274.94" xlink:href="#linear-gradient"/>
    <linearGradient id="linear-gradient-5" x1="-315.06" y1="263.05" x2="-318.03" y2="273.93" xlink:href="#linear-gradient"/>
    <linearGradient id="linear-gradient-6" x1="-91.85" y1="-96.25" x2="-93.37" y2="-90.67" gradientTransform="translate(76 112.99) rotate(10.9)" xlink:href="#linear-gradient"/>
    <linearGradient id="linear-gradient-7" x1="-93.5" y1="-96.7" x2="-95.03" y2="-91.13" gradientTransform="translate(76 112.99) rotate(10.9)" xlink:href="#linear-gradient"/>
    <linearGradient id="linear-gradient-8" x1="-94.64" y1="-97.01" x2="-96.16" y2="-91.43" gradientTransform="translate(76 112.99) rotate(10.9)" xlink:href="#linear-gradient"/>
    <linearGradient id="linear-gradient-9" x1="-90.36" y1="-95.84" x2="-91.89" y2="-90.27" gradientTransform="translate(76 112.99) rotate(10.9)" xlink:href="#linear-gradient"/>
    <linearGradient id="linear-gradient-10" x1="-92.26" y1="-96.36" x2="-93.78" y2="-90.78" gradientTransform="translate(76 112.99) rotate(10.9)" xlink:href="#linear-gradient"/>
  </defs>
  <g class="cls-10">
    <g id="Layer_2" data-name="Layer 2">
      <g id="Layer_1-2" data-name="Layer 1">
        <g>
          <path class="cls-9" d="M11.3,5.74s0,0,0,0c.21.38.53.62.9.63.07,0,.13,0,.19-.02h0c.57-.12,1.01-.79,1.03-1.62.02-.67-.25-1.25-.64-1.53h0s0,0,0,0c-.15-.1-.32-.16-.49-.17-.58-.01-1.09.57-1.2,1.35-.02.09-.02.19-.02.29-.01.4.08.77.24,1.06Z"/>
          <path class="cls-8" d="M10.41,6.03s0,0,0,0c.05.43-.06.81-.35,1.04-.05.04-.11.07-.17.1h0c-.53.24-1.28-.04-1.79-.7-.41-.53-.54-1.16-.38-1.61h0s0,0,0,0c.06-.17.16-.32.3-.43.46-.36,1.21-.18,1.77.38.07.07.13.14.19.22.25.32.39.67.43,1Z"/>
          <path class="cls-7" d="M8.52,8.86s0,0,0,0c.17.3.2.63.05.88-.03.05-.06.09-.1.13h0c-.32.34-.97.35-1.55.01-.46-.27-.75-.7-.77-1.09h0s0,0,0,0c0-.15.02-.29.1-.41.24-.41.85-.5,1.44-.24.07.03.14.07.21.11.28.16.49.39.62.62Z"/>
          <path class="cls-6" d="M14.65,6.86s0,0,0,0c.04.34.21.62.48.74.05.02.1.04.15.04h0c.46.08.99-.29,1.26-.9.21-.5.19-1.01-.02-1.34h0s0,0,0,0c-.08-.12-.19-.22-.32-.27-.43-.19-.98.1-1.31.65-.04.07-.07.13-.1.21-.13.3-.17.6-.14.87Z"/>
          <g>
            <path class="cls-3" d="M9.64,12.17c.37.36.73.46,1.06.42h0c.5-.06.93-.44,1.24-.74.53-.51,1.33-.78,2.06-.67.39.06.89.1,1.3-.06,0,0,0,0,0,0,.36-.14.65-.44.75-1.03.11-.63-.13-1-.45-1.22h0c-.33-.23-.75-.3-1.01-.35-.06-.01-.12-.04-.18-.09h0c-.49-.37-1.14-1.62-2.8-1.07-2.08.6-1.46,2.1-1.66,2.6h0s-.03.06-.05.09c-.11.12-.27.29-.4.49t0,0c-.3.44-.49,1.03.15,1.64Z"/>
            <path class="cls-11" d="M9.64,12.17c.93.89,1.78.19,2.3-.32.53-.51,1.33-.78,2.06-.67.73.11,1.83.17,2.05-1.1.11-.63-.13-1-.45-1.22.03.05.49.95-.32,1.49-.84.56-1.59-.26-2.66.08-1.07.34-1.18,1.22-1.77,1.47-.6.25-1.77-.21-1.36-1.37-.3.44-.49,1.03.15,1.64Z"/>
          </g>
        </g>
        <g>
          <path class="cls-4" d="M3.14,1.57s0,0,0,0c-.04.22.02.42.16.54.03.02.05.04.08.05h0c.26.13.66,0,.93-.32.22-.26.3-.58.23-.82h0s0,0,0,0c-.03-.09-.07-.17-.14-.22-.23-.19-.62-.12-.91.16-.04.03-.07.07-.1.11-.13.16-.21.34-.24.5Z"/>
          <path class="cls-2" d="M2.69,1.4s0,0,0,0c-.11.19-.28.31-.47.3-.03,0-.07,0-.1-.01h0c-.29-.07-.5-.43-.49-.85,0-.34.15-.63.36-.77h0s0,0,0,0C2.06.03,2.15,0,2.24,0c.3,0,.54.31.59.72,0,.05,0,.1,0,.15,0,.21-.06.39-.14.54Z"/>
          <path class="cls-1" d="M1.03,1.94s0,0,0,0c-.03.18-.12.32-.26.37-.02.01-.05.02-.08.02h0c-.24.03-.5-.17-.63-.49-.1-.26-.08-.52.04-.68h0s0,0,0,0c.04-.06.1-.11.17-.13.23-.09.5.07.66.36.02.03.03.07.05.11.06.16.08.31.05.45Z"/>
          <path class="cls-5" d="M4.13,3.08s0,0,0,0c-.09.15-.11.32-.04.45.01.02.03.05.05.07h0c.16.18.49.2.79.04.24-.13.4-.35.42-.55h0s0,0,0,0c0-.07,0-.15-.04-.21-.11-.21-.43-.27-.73-.15-.04.01-.07.03-.11.05-.15.08-.26.19-.33.3Z"/>
          <g>
            <path class="cls-12" d="M.43,3.62c.04.26.15.42.29.51h0c.22.13.51.12.73.1.38-.04.78.11,1.04.38.14.15.32.32.54.39,0,0,0,0,0,0,.19.06.4.03.63-.17.25-.22.27-.44.21-.64h0c-.06-.2-.21-.36-.29-.46-.02-.02-.03-.05-.04-.09h0c-.08-.3.06-1.01-.78-1.32-1.03-.42-1.25.38-1.5.52h0s-.03.02-.05.02c-.08.01-.2.03-.32.07t0,0c-.26.08-.52.26-.46.71Z"/>
            <path class="cls-11" d="M.43,3.62c.09.65.65.64,1.03.6.38-.04.78.11,1.04.38.26.27.68.65,1.17.21.25-.22.27-.44.21-.64,0,.03-.1.54-.6.5-.52-.04-.56-.61-1.09-.82-.54-.2-.86.12-1.18.03-.32-.09-.65-.65-.11-.98-.26.08-.52.26-.46.71Z"/>
          </g>
        </g>
      </g>
    </g>
  </g>
</svg>