<?xml version="1.0" encoding="UTF-8"?>
<svg id="Layer_2" data-name="Layer 2" xmlns="http://www.w3.org/2000/svg" xmlns:xlink="http://www.w3.org/1999/xlink" viewBox="0 0 11.34 17.46">
  <defs>
    <style>
      .cls-1 {
        fill: url(#linear-gradient-2);
      }

      .cls-2 {
        fill: url(#linear-gradient);
      }

      .cls-3 {
        fill: #fff;
      }
    </style>
    <linearGradient id="linear-gradient" x1="154.99" y1="280.94" x2="155.08" y2="289.66" gradientTransform="translate(-18.01 -310.82) rotate(24.47)" gradientUnits="userSpaceOnUse">
      <stop offset="0" stop-color="#ffbfd7"/>
      <stop offset="1" stop-color="#ff70b5"/>
    </linearGradient>
    <linearGradient id="linear-gradient-2" x1="-23.75" y1="-12.62" x2="-23.7" y2="-7.89" gradientTransform="translate(33.78 7.76) rotate(-12.51)" xlink:href="#linear-gradient"/>
  </defs>
  <g id="Layer_1-2" data-name="Layer 1">
    <g>
      <path class="cls-2" d="M4.15,17.18c-.4,0-.75-.05-1.06-.14C.95,15.86.03,12.86.34,10.63c.21-1.48.92-2.46,1.95-2.69.32-.07.62-.11.91-.11.5,0,.94.11,1.33.32.99.51,1.32,1.53,1.43,2.08.51-.18,1.07-.28,1.6-.28,1.04,0,1.9.36,2.43,1.02.02.03.04.07.05.1.31.36.51.93.56,1.63.04.74-.28,1.49-.92,2.17-1.37,1.45-3.9,2.31-5.55,2.31Z"/>
      <path class="cls-3" d="M3.21,8.11c.49,0,.88.11,1.2.29,1.25.64,1.34,2.23,1.34,2.23.54-.24,1.19-.39,1.83-.39.85,0,1.69.26,2.22.91h0c.3.38.5.9.54,1.57.13,2.32-3.74,4.18-6.19,4.18-.36,0-.69-.04-.98-.13C0,15.01-.29,8.81,2.36,8.22c.31-.07.59-.1.85-.1M3.21,7.55c-.31,0-.63.04-.97.11-1.15.26-1.94,1.33-2.17,2.92-.33,2.29.55,5.41,2.83,6.67.03.02.07.03.11.05.33.1.71.15,1.14.15,1.99,0,4.46-1.03,5.75-2.4.7-.74,1.04-1.56,1-2.37-.05-.74-.26-1.35-.63-1.83-.01-.02-.03-.04-.04-.06-.59-.72-1.53-1.12-2.65-1.12-.46,0-.94.07-1.4.2-.18-.62-.58-1.5-1.51-1.97-.42-.23-.91-.35-1.46-.35h0Z"/>
    </g>
    <g>
      <path class="cls-1" d="M8.55,5.23c-1.27,0-2.52-1.04-2.98-2.06-.3-.65-.27-1.26.08-1.67.32-.38.68-.59,1.07-.65.07-.01.15-.02.22-.02.42,0,.77.2,1,.37.37-.49.95-.92,1.6-.92.11,0,.23.01.34.04.32.08.6.27.85.56.35.41.43,1,.24,1.7-.3,1.12-1.23,2.31-2.04,2.61-.16.03-.27.04-.37.04Z"/>
      <path class="cls-3" d="M9.53.56c.09,0,.18.01.27.03h0c.24.06.48.21.7.47.88,1.04-.58,3.46-1.68,3.86-.09.01-.18.02-.27.02-1.76,0-3.55-2.26-2.69-3.27.31-.36.61-.51.89-.55.06-.01.12-.02.18-.02.61,0,1.05.51,1.05.51.3-.55.91-1.06,1.54-1.06M9.53,0h0c-.65,0-1.24.36-1.65.82-.25-.15-.57-.27-.94-.27-.09,0-.18,0-.28.02-.45.06-.86.32-1.23.75-.42.5-.47,1.22-.12,1.97.5,1.08,1.8,2.22,3.24,2.22.12,0,.24,0,.35-.02.04,0,.08-.02.11-.03.9-.33,1.89-1.59,2.21-2.8.21-.8.11-1.47-.3-1.95-.28-.33-.6-.54-.95-.64-.02,0-.04-.01-.05-.02-.13-.03-.27-.05-.41-.05h0Z"/>
    </g>
  </g>
</svg>