<?xml version="1.0" encoding="UTF-8"?>
<svg xmlns="http://www.w3.org/2000/svg" xmlns:xlink="http://www.w3.org/1999/xlink" viewBox="0 0 58.18 49.43">
  <defs>
    <style>
      .cls-1 {
        fill: url(#linear-gradient-7);
      }

      .cls-2 {
        fill: url(#linear-gradient-5);
      }

      .cls-3 {
        fill: url(#linear-gradient-4);
      }

      .cls-4 {
        fill: url(#linear-gradient-3);
      }

      .cls-5 {
        fill: url(#linear-gradient-2);
      }

      .cls-6 {
        fill: url(#radial-gradient);
      }

      .cls-7 {
        fill: url(#linear-gradient);
      }

      .cls-8 {
        isolation: isolate;
      }

      .cls-9 {
        fill: #303030;
        opacity: .69;
      }

      .cls-9, .cls-10 {
        mix-blend-mode: overlay;
      }

      .cls-10 {
        fill: url(#linear-gradient-6);
      }

      .cls-11 {
        fill: #fff;
      }

      .cls-12 {
        fill: #bd2e58;
      }
    </style>
    <radialGradient id="radial-gradient" cx="-111.57" cy="-13.42" fx="-111.57" fy="-13.42" r="23.46" gradientTransform="translate(139.34 21.07) rotate(-8.12)" gradientUnits="userSpaceOnUse">
      <stop offset="0" stop-color="#ff9cae"/>
      <stop offset=".09" stop-color="#ffa4b4"/>
      <stop offset=".23" stop-color="#ffbbc7"/>
      <stop offset=".41" stop-color="#ffe0e5"/>
      <stop offset=".53" stop-color="#fff"/>
      <stop offset="1" stop-color="#ff9cae"/>
    </radialGradient>
    <linearGradient id="linear-gradient" x1="-104.05" y1="-25.29" x2="-115.41" y2="16.3" gradientTransform="translate(139.34 21.07) rotate(-8.12)" gradientUnits="userSpaceOnUse">
      <stop offset="0" stop-color="#ff78ac"/>
      <stop offset="1" stop-color="#ff758a"/>
    </linearGradient>
    <linearGradient id="linear-gradient-2" x1="-116.42" y1="-28.67" x2="-127.78" y2="12.92" xlink:href="#linear-gradient"/>
    <linearGradient id="linear-gradient-3" x1="-124.88" y1="-30.98" x2="-136.24" y2="10.61" xlink:href="#linear-gradient"/>
    <linearGradient id="linear-gradient-4" x1="-92.98" y1="-22.27" x2="-104.34" y2="19.32" xlink:href="#linear-gradient"/>
    <linearGradient id="linear-gradient-5" x1="-107.12" y1="-26.13" x2="-118.48" y2="15.46" xlink:href="#linear-gradient"/>
    <linearGradient id="linear-gradient-6" x1="513.85" y1="466.09" x2="513.43" y2="456.92" gradientTransform="translate(550.46 -421.42) rotate(-178.71) scale(1 -1)" gradientUnits="userSpaceOnUse">
      <stop offset=".13" stop-color="#000"/>
      <stop offset=".65" stop-color="#000" stop-opacity="0"/>
    </linearGradient>
    <linearGradient id="linear-gradient-7" x1="-51.51" y1="-177.51" x2="-51.44" y2="-170.85" gradientTransform="translate(194.77 124.51) rotate(-34.01)" gradientUnits="userSpaceOnUse">
      <stop offset="0" stop-color="#ffbfd7"/>
      <stop offset="1" stop-color="#ff70b5"/>
    </linearGradient>
  </defs>
  <g class="cls-8">
    <g id="Layer_2" data-name="Layer 2">
      <g id="Layer_1-2" data-name="Layer 1">
        <g>
          <path class="cls-11" d="M20.9,4.45c3.72,0,5.68,2.45,6.29,3.36.63-.75,2.87-3.08,6.56-3.08.75,0,1.56.1,2.42.32,8.13,2.11,6.96,13.11,6.96,13.11,0,0,9.9.97,8.57,7.68-.47,2.39-1.42,4.09-2.41,5.3-2.31,2.89-5.23,3.09-6.01,3.09-.13,0-.2,0-.2,0,0,0,2.28,5.92-2.51,11.07-1.53,1.64-3.56,2.2-5.6,2.2-3.81,0-7.68-1.94-8.59-2.43-.28.14-.85.42-1.62.73,0,0-.01,0-.03,0-1.53.61-3.83,1.32-6.15,1.32-2.14,0-4.3-.61-5.88-2.46-4.55-5.36-2.01-11.17-2.01-11.17,0,0-.01,0-.04,0-.47,0-4.8-.14-7.12-5.26-.45-.98-.81-2.14-1.08-3.51-1.2-6.51,4-7.41,6.97-7.41,1.13,0,1.94.13,1.94.13,0,0-.66-11.06,7.55-12.79.71-.15,1.37-.22,1.99-.22M20.9,2.53v1.92s0-1.92,0-1.92c-.77,0-1.57.09-2.38.26-4.09.87-6.96,3.77-8.3,8.39-.45,1.56-.65,3.07-.73,4.23-.02,0-.04,0-.06,0-2.34,0-5.55.49-7.5,2.84-1.42,1.71-1.88,4.01-1.36,6.84.3,1.53.69,2.83,1.22,3.97,1.74,3.84,4.5,5.37,6.49,5.98-.47,2.54-.5,6.82,2.96,10.88,1.76,2.06,4.3,3.14,7.35,3.14,2.6,0,5.11-.77,6.79-1.43.04-.01.07-.03.11-.04.3-.12.59-.24.88-.37,1.67.79,5.13,2.21,8.61,2.21,2.91,0,5.27-.95,7.01-2.81,3.63-3.91,3.8-8.18,3.45-10.74,1.56-.4,3.62-1.34,5.37-3.52,1.39-1.72,2.33-3.78,2.79-6.13.41-2.08,0-4.02-1.17-5.61-1.87-2.51-5.22-3.6-7.31-4.05-.01-1.19-.12-2.85-.54-4.59-1.12-4.67-3.86-7.7-7.91-8.75-.98-.25-1.95-.38-2.9-.38-2.87,0-5.02,1.13-6.42,2.23-1.3-1.21-3.41-2.51-6.42-2.51h0Z"/>
          <path class="cls-11" d="M20.54,1.92c3.72,0,5.68,2.45,6.29,3.36.63-.75,2.87-3.08,6.56-3.08.75,0,1.56.1,2.42.32,8.13,2.11,6.96,13.11,6.96,13.11,0,0,9.9.97,8.57,7.68-.47,2.39-1.42,4.09-2.41,5.3-2.31,2.89-5.23,3.09-6.01,3.09-.13,0-.2,0-.2,0,0,0,2.28,5.92-2.51,11.07-1.53,1.64-3.56,2.2-5.6,2.2-3.81,0-7.68-1.94-8.59-2.43-.28.14-.85.42-1.62.73,0,0-.01,0-.03,0-1.53.61-3.83,1.32-6.15,1.32-2.14,0-4.3-.61-5.88-2.46-4.55-5.36-2.01-11.17-2.01-11.17,0,0-.01,0-.04,0-.47,0-4.8-.14-7.12-5.26-.45-.98-.81-2.14-1.08-3.51-1.2-6.51,4-7.41,6.97-7.41,1.13,0,1.94.13,1.94.13,0,0-.66-11.06,7.55-12.79.71-.15,1.37-.22,1.99-.22M20.54,0v1.92S20.54,0,20.54,0c-.77,0-1.57.09-2.38.26-4.09.87-6.96,3.77-8.3,8.39-.45,1.56-.65,3.07-.73,4.23-.02,0-.04,0-.06,0-2.34,0-5.55.49-7.5,2.84-1.42,1.71-1.88,4.01-1.36,6.84.3,1.53.69,2.83,1.22,3.97,1.74,3.84,4.5,5.37,6.49,5.98-.47,2.54-.5,6.82,2.96,10.88,1.76,2.06,4.3,3.14,7.35,3.14,2.6,0,5.11-.77,6.79-1.43.04-.01.07-.03.11-.04.3-.12.59-.24.88-.37,1.67.79,5.13,2.21,8.61,2.21,2.91,0,5.27-.95,7.01-2.81,3.63-3.91,3.8-8.18,3.45-10.74,1.56-.4,3.62-1.34,5.37-3.52,1.39-1.72,2.33-3.78,2.79-6.13.41-2.08,0-4.02-1.17-5.61-1.87-2.51-5.22-3.6-7.31-4.05-.01-1.19-.12-2.85-.54-4.59-1.12-4.67-3.86-7.7-7.91-8.75-.98-.25-1.95-.38-2.9-.38-2.87,0-5.02,1.13-6.42,2.23C25.66,1.31,23.55,0,20.54,0h0Z"/>
          <path class="cls-12" d="M2.46,24.74c.26,1.37.62,2.53,1.08,3.51,2.46,5.42,7.16,5.26,7.16,5.26,0,0-2.54,5.81,2.01,11.17,3.31,3.87,9.09,2.31,12.03,1.14.01,0,.03,0,.03,0,.77-.31,1.33-.58,1.62-.73,1.39.75,9.8,4.93,14.19.22,4.79-5.15,2.51-11.07,2.51-11.07,0,0,3.52.28,6.21-3.08.98-1.22,1.94-2.91,2.41-5.3,1.33-6.7-8.57-7.68-8.57-7.68,0,0,1.16-11-6.96-13.11-5.13-1.33-8.22,1.86-8.98,2.76-.7-1.07-3.25-4.21-8.27-3.15-8.21,1.74-7.55,12.79-7.55,12.79,0,0-10.57-1.72-8.91,7.28Z"/>
          <path class="cls-6" d="M2.1,22.21c.26,1.37.62,2.53,1.08,3.51,2.46,5.42,7.16,5.26,7.16,5.26,0,0-2.54,5.81,2.01,11.17,3.31,3.87,9.09,2.31,12.03,1.14.01,0,.03,0,.03,0,.77-.31,1.33-.58,1.62-.73,1.39.75,9.8,4.93,14.19.22,4.79-5.15,2.51-11.07,2.51-11.07,0,0,3.52.28,6.21-3.08.98-1.22,1.94-2.91,2.41-5.3,1.33-6.7-8.57-7.68-8.57-7.68,0,0,1.16-11-6.96-13.11-5.13-1.33-8.22,1.86-8.98,2.76-.7-1.07-3.25-4.21-8.27-3.15-8.21,1.74-7.55,12.79-7.55,12.79,0,0-10.57-1.72-8.91,7.28Z"/>
          <g>
            <path class="cls-7" d="M27.69,16.11s0,0,0,.02c.27,1.62,1.13,2.91,2.44,3.41.23.09.48.15.72.18h0c2.19.29,4.64-1.58,5.76-4.53.91-2.39.69-4.82-.39-6.32h0s0,0,0,0c-.41-.56-.93-.99-1.57-1.23-2.09-.79-4.64.67-6.05,3.35-.17.32-.32.65-.45,1-.55,1.44-.69,2.89-.48,4.14Z"/>
            <path class="cls-9" d="M27.7,16.13c.27,1.62,1.13,2.91,2.44,3.41,2.34.89,5.25-1.06,6.5-4.35,1.25-3.29.36-6.67-1.97-7.56-2.09-.79-4.64.67-6.05,3.35,0,0,2.78-2.38,4.62-.73,1.83,1.64,1.92,5.17-.16,7.33-2.1,2.16-4.82.72-5.38-1.44Z"/>
          </g>
          <g>
            <path class="cls-5" d="M24.11,16.03s0,0-.01.02c-.35,1.6-1.26,2.86-2.59,3.29-.23.08-.49.12-.73.15h0c-2.2.19-4.56-1.78-5.56-4.79-.8-2.43-.47-4.85.68-6.3h0s0,0,0,0c.43-.54.97-.95,1.62-1.16,2.12-.7,4.6.88,5.89,3.62.16.32.29.67.4,1.02.48,1.46.56,2.92.3,4.15Z"/>
            <path class="cls-9" d="M24.1,16.04c-.35,1.6-1.26,2.86-2.59,3.29-2.38.78-5.2-1.29-6.3-4.64-1.1-3.35-.06-6.68,2.3-7.47,2.12-.7,4.6.88,5.89,3.62,0,0-2.67-2.5-4.58-.94-1.9,1.56-2.15,5.08-.16,7.33,2,2.25,4.79.93,5.44-1.2Z"/>
          </g>
          <g>
            <path class="cls-4" d="M13.71,23.83s0,.01,0,.02c.22,1.31-.09,2.52-.95,3.25-.15.13-.33.24-.5.33h0c-1.59.81-3.96.04-5.6-1.92-1.33-1.58-1.81-3.49-1.39-4.92h0s0-.01,0-.01c.16-.54.44-1,.87-1.35,1.38-1.16,3.71-.72,5.5.94.22.2.41.41.61.64.8.95,1.29,2.02,1.47,3.02Z"/>
            <path class="cls-9" d="M13.71,23.85c.22,1.31-.09,2.52-.95,3.25-1.55,1.3-4.28.59-6.11-1.59-1.83-2.18-2.06-4.99-.52-6.29,1.38-1.16,3.71-.72,5.5.94,0,0-2.75-1.07-3.72.67-.96,1.74-.09,4.45,2.08,5.54,2.17,1.09,3.87-.74,3.71-2.53Z"/>
          </g>
          <g>
            <path class="cls-3" d="M38.38,24.39s0,.01,0,.02c-.28,1.3-.03,2.52.81,3.29.15.14.32.25.49.35h0c1.55.88,3.95.22,5.68-1.66,1.4-1.52,1.97-3.41,1.61-4.86h0s0-.01,0-.01c-.13-.54-.4-1.02-.8-1.39-1.33-1.22-3.68-.89-5.54.69-.22.19-.43.39-.64.61-.84.91-1.38,1.96-1.6,2.96Z"/>
            <path class="cls-9" d="M38.38,24.4c-.28,1.3-.03,2.52.81,3.29,1.49,1.37,4.25.78,6.18-1.31,1.93-2.09,2.28-4.89.8-6.26-1.33-1.22-3.68-.89-5.54.69,0,0,2.8-.94,3.68.84.88,1.78-.11,4.45-2.32,5.44-2.22.99-3.83-.91-3.6-2.7Z"/>
          </g>
          <g>
            <path class="cls-2" d="M13.55,37.21c.88,1.76,2.05,2.58,3.3,2.86h0c1.87.41,3.89-.4,5.42-1.11,2.55-1.19,5.78-1.11,8.27.19,1.33.7,3.07,1.49,4.77,1.42,0,0,0,0,0,0,1.47-.05,2.91-.77,4.03-2.77,1.2-2.15.81-3.77-.09-4.98h0c-.91-1.23-2.33-2.04-3.2-2.56-.19-.12-.36-.31-.53-.56h0c-1.3-1.94-2.06-7.29-8.74-7.4-8.27-.48-7.93,5.72-9.3,7.29h0c-.09.1-.19.19-.3.25-.55.3-1.33.7-2.07,1.25t-.01.02c-1.63,1.2-3.07,3.11-1.55,6.12Z"/>
            <path class="cls-9" d="M13.55,37.21c2.21,4.39,6.18,2.95,8.72,1.75,2.55-1.19,5.78-1.11,8.27.19,2.5,1.31,6.39,2.93,8.8-1.36,1.2-2.15.81-3.77-.09-4.98.03.22.58,4.03-3.05,4.97-3.73.97-5.42-2.97-9.7-3.1-4.27-.13-5.79,2.91-8.25,3.06-2.46.14-6.13-3.01-3.16-6.65-1.63,1.2-3.07,3.11-1.55,6.12Z"/>
            <path class="cls-10" d="M17.48,29.57c10.91,5.51,18.04.11,18.04.11h0c-1.3-1.94-2.06-7.29-8.74-7.4-8.27-.48-7.93,5.72-9.3,7.29Z"/>
          </g>
        </g>
        <g>
          <path class="cls-1" d="M54.68,12.16c-1.55,0-3.25-.8-4.04-1.9-.41-.57-.52-1.16-.34-1.7.22-.65.57-1.12,1.04-1.39.3-.18.65-.27,1.02-.27.33,0,.63.07.84.14.25-1.07,1-2.11,2.09-2.26.09,0,.17-.01.25-.01.37,0,.75.1,1.13.31.65.35,1.05,1.07,1.17,2.08.19,1.64-.42,3.71-1.33,4.52-.56.33-1.17.48-1.85.48Z"/>
          <path class="cls-11" d="M55.56,5.05c.3,0,.64.08,1,.27,1.76.95,1.06,5.01-.22,6.15-.5.28-1.07.4-1.66.4-2.2,0-4.62-1.71-4.11-3.23.22-.65.56-1.03.92-1.23.29-.18.6-.24.89-.24.58,0,1.06.25,1.06.25.14-1.03.83-2.23,1.91-2.37h.01c.07,0,.13-.01.2-.01M55.56,4.49c-.08,0-.15,0-.22.01-.02,0-.04,0-.06,0-1.12.15-1.91,1.13-2.25,2.19-.19-.04-.41-.08-.65-.08-.43,0-.83.11-1.18.32-.52.3-.91.82-1.16,1.53-.21.63-.08,1.32.37,1.96.84,1.17,2.63,2.02,4.27,2.02.73,0,1.38-.16,1.94-.48.03-.02.07-.04.1-.07.97-.86,1.62-3.05,1.42-4.77-.13-1.11-.58-1.9-1.31-2.3-.43-.23-.85-.34-1.26-.34h0Z"/>
        </g>
      </g>
    </g>
  </g>
</svg>