<?xml version="1.0" encoding="UTF-8"?>
<svg xmlns="http://www.w3.org/2000/svg" xmlns:xlink="http://www.w3.org/1999/xlink" viewBox="0 0 59.37 49.43">
  <defs>
    <style>
      .cls-1 {
        fill: #fce883;
      }

      .cls-2 {
        fill: url(#linear-gradient-7);
      }

      .cls-3 {
        fill: url(#linear-gradient-5);
      }

      .cls-4 {
        fill: url(#linear-gradient-4);
      }

      .cls-5 {
        fill: url(#linear-gradient-3);
      }

      .cls-6 {
        fill: url(#linear-gradient-2);
      }

      .cls-7 {
        fill: #fcd517;
      }

      .cls-8 {
        fill: url(#radial-gradient);
      }

      .cls-9 {
        fill: url(#linear-gradient);
      }

      .cls-10 {
        fill: #d67003;
      }

      .cls-11 {
        fill: #ed8203;
      }

      .cls-12 {
        isolation: isolate;
      }

      .cls-13 {
        fill: #ffab03;
      }

      .cls-14 {
        fill: #e063ff;
      }

      .cls-15 {
        fill: url(#linear-gradient-6);
      }

      .cls-15, .cls-16 {
        mix-blend-mode: overlay;
      }

      .cls-17 {
        fill: #fff;
      }

      .cls-18 {
        fill: #e67902;
      }
    </style>
    <radialGradient id="radial-gradient" cx="-110.87" cy="-14.51" fx="-110.87" fy="-14.51" r="23.46" gradientTransform="translate(138.8 22.25) rotate(-8.12)" gradientUnits="userSpaceOnUse">
      <stop offset="0" stop-color="#eca1ff"/>
      <stop offset=".09" stop-color="#eda9ff"/>
      <stop offset=".24" stop-color="#f2c0ff"/>
      <stop offset=".42" stop-color="#f9e5ff"/>
      <stop offset=".53" stop-color="#fff"/>
      <stop offset="1" stop-color="#eca1ff"/>
    </radialGradient>
    <linearGradient id="linear-gradient" x1="-103.35" y1="-26.38" x2="-114.71" y2="15.21" gradientTransform="translate(138.8 22.25) rotate(-8.12)" gradientUnits="userSpaceOnUse">
      <stop offset="0" stop-color="#ff78f6"/>
      <stop offset=".91" stop-color="#fc5ad1"/>
    </linearGradient>
    <linearGradient id="linear-gradient-2" x1="-115.72" y1="-29.76" x2="-127.08" y2="11.83" xlink:href="#linear-gradient"/>
    <linearGradient id="linear-gradient-3" x1="-124.18" y1="-32.07" x2="-135.54" y2="9.52" xlink:href="#linear-gradient"/>
    <linearGradient id="linear-gradient-4" x1="-92.28" y1="-23.36" x2="-103.64" y2="18.23" xlink:href="#linear-gradient"/>
    <linearGradient id="linear-gradient-5" x1="-106.42" y1="-27.22" x2="-117.78" y2="14.37" xlink:href="#linear-gradient"/>
    <linearGradient id="linear-gradient-6" x1="530.06" y1="466.27" x2="529.63" y2="457.1" gradientTransform="translate(566.67 -421.24) rotate(-178.71) scale(1 -1)" gradientUnits="userSpaceOnUse">
      <stop offset=".13" stop-color="#000"/>
      <stop offset=".65" stop-color="#000" stop-opacity="0"/>
    </linearGradient>
    <linearGradient id="linear-gradient-7" x1="967.52" y1="-52.66" x2="969.72" y2="-50.46" gradientTransform="translate(-760.02 533.17) rotate(-29.64)" gradientUnits="userSpaceOnUse">
      <stop offset="0" stop-color="#ffe53b"/>
      <stop offset="1" stop-color="#ffa200"/>
    </linearGradient>
  </defs>
  <g class="cls-12">
    <g id="Layer_2" data-name="Layer 2">
      <g id="Layer_1-2" data-name="Layer 1">
        <g>
          <path class="cls-17" d="M20.9,4.45c3.72,0,5.68,2.45,6.29,3.36.63-.75,2.87-3.08,6.56-3.08.75,0,1.56.1,2.42.32,8.13,2.11,6.96,13.11,6.96,13.11,0,0,9.9.97,8.57,7.68-.47,2.39-1.42,4.09-2.41,5.3-2.31,2.89-5.23,3.09-6.01,3.09-.13,0-.2,0-.2,0,0,0,2.28,5.92-2.51,11.07-1.53,1.64-3.56,2.2-5.6,2.2-3.81,0-7.68-1.94-8.59-2.43-.28.14-.85.42-1.62.73,0,0-.01,0-.03,0-1.53.61-3.83,1.32-6.15,1.32-2.14,0-4.3-.61-5.88-2.46-4.55-5.36-2.01-11.17-2.01-11.17,0,0-.01,0-.04,0-.47,0-4.8-.14-7.12-5.26-.45-.98-.81-2.14-1.08-3.51-1.2-6.51,4-7.41,6.97-7.41,1.13,0,1.94.13,1.94.13,0,0-.66-11.06,7.55-12.79.71-.15,1.37-.22,1.99-.22M20.9,2.53h0c-.77,0-1.57.09-2.38.26-4.09.87-6.96,3.77-8.3,8.39-.45,1.56-.65,3.07-.73,4.23-.02,0-.04,0-.06,0-2.34,0-5.55.49-7.5,2.84-1.42,1.71-1.88,4.01-1.36,6.84.3,1.53.69,2.83,1.22,3.97,1.74,3.84,4.5,5.37,6.49,5.98-.47,2.54-.5,6.82,2.96,10.88,1.76,2.06,4.3,3.14,7.35,3.14,2.6,0,5.11-.77,6.79-1.43.04-.01.07-.03.11-.04.3-.12.59-.24.88-.37,1.67.79,5.13,2.21,8.61,2.21,2.91,0,5.27-.95,7.01-2.81,3.63-3.91,3.8-8.18,3.45-10.74,1.56-.4,3.62-1.34,5.37-3.52,1.39-1.72,2.33-3.78,2.79-6.13.41-2.08,0-4.02-1.17-5.61-1.87-2.51-5.22-3.6-7.31-4.05-.01-1.19-.12-2.85-.54-4.59-1.12-4.67-3.86-7.7-7.91-8.75-.98-.25-1.95-.38-2.9-.38-2.87,0-5.02,1.13-6.42,2.23-1.3-1.21-3.41-2.51-6.42-2.51h0Z"/>
          <path class="cls-17" d="M20.54,1.92c3.72,0,5.68,2.45,6.29,3.36.63-.75,2.87-3.08,6.56-3.08.75,0,1.56.1,2.42.32,8.13,2.11,6.96,13.11,6.96,13.11,0,0,9.9.97,8.57,7.68-.47,2.39-1.42,4.09-2.41,5.3-2.31,2.89-5.23,3.09-6.01,3.09-.13,0-.2,0-.2,0,0,0,2.28,5.92-2.51,11.07-1.53,1.64-3.56,2.2-5.6,2.2-3.81,0-7.68-1.94-8.59-2.43-.28.14-.85.42-1.62.73,0,0-.01,0-.03,0-1.53.61-3.83,1.32-6.15,1.32-2.14,0-4.3-.61-5.88-2.46-4.55-5.36-2.01-11.17-2.01-11.17,0,0-.01,0-.04,0-.47,0-4.8-.14-7.12-5.26-.45-.98-.81-2.14-1.08-3.51-1.2-6.51,4-7.41,6.97-7.41,1.13,0,1.94.13,1.94.13,0,0-.66-11.06,7.55-12.79.71-.15,1.37-.22,1.99-.22M20.54,0h0c-.77,0-1.57.09-2.38.26-4.09.87-6.96,3.77-8.3,8.39-.45,1.56-.65,3.07-.73,4.23-.02,0-.04,0-.06,0-2.34,0-5.55.49-7.5,2.84-1.42,1.71-1.88,4.01-1.36,6.84.3,1.53.69,2.83,1.22,3.97,1.74,3.84,4.5,5.37,6.49,5.98-.47,2.54-.5,6.82,2.96,10.88,1.76,2.06,4.3,3.14,7.35,3.14,2.6,0,5.11-.77,6.79-1.43.04-.01.07-.03.11-.04.3-.12.59-.24.88-.37,1.67.79,5.13,2.21,8.61,2.21,2.91,0,5.27-.95,7.01-2.81,3.63-3.91,3.8-8.18,3.45-10.74,1.56-.4,3.62-1.34,5.37-3.52,1.39-1.72,2.33-3.78,2.79-6.13.41-2.08,0-4.02-1.17-5.61-1.87-2.51-5.22-3.6-7.31-4.05-.01-1.19-.12-2.85-.54-4.59-1.12-4.67-3.86-7.7-7.91-8.75-.98-.25-1.95-.38-2.9-.38-2.87,0-5.02,1.13-6.42,2.23C25.66,1.31,23.55,0,20.54,0h0Z"/>
          <path class="cls-14" d="M2.46,24.74c.26,1.37.62,2.53,1.08,3.51,2.46,5.42,7.16,5.26,7.16,5.26,0,0-2.54,5.81,2.01,11.17,3.31,3.87,9.09,2.31,12.03,1.14.01,0,.03,0,.03,0,.77-.31,1.33-.58,1.62-.73,1.39.75,9.8,4.93,14.19.22,4.79-5.15,2.51-11.07,2.51-11.07,0,0,3.52.28,6.21-3.08.98-1.22,1.94-2.91,2.41-5.3,1.33-6.7-8.57-7.68-8.57-7.68,0,0,1.16-11-6.96-13.11-5.13-1.33-8.22,1.86-8.98,2.76-.7-1.07-3.25-4.21-8.27-3.15-8.21,1.74-7.55,12.79-7.55,12.79,0,0-10.57-1.72-8.91,7.28Z"/>
          <path class="cls-8" d="M2.1,22.21c.26,1.37.62,2.53,1.08,3.51,2.46,5.42,7.16,5.26,7.16,5.26,0,0-2.54,5.81,2.01,11.17,3.31,3.87,9.09,2.31,12.03,1.14.01,0,.03,0,.03,0,.77-.31,1.33-.58,1.62-.73,1.39.75,9.8,4.93,14.19.22,4.79-5.15,2.51-11.07,2.51-11.07,0,0,3.52.28,6.21-3.08.98-1.22,1.94-2.91,2.41-5.3,1.33-6.7-8.57-7.68-8.57-7.68,0,0,1.16-11-6.96-13.11-5.13-1.33-8.22,1.86-8.98,2.76-.7-1.07-3.25-4.21-8.27-3.15-8.21,1.74-7.55,12.79-7.55,12.79,0,0-10.57-1.72-8.91,7.28Z"/>
          <g>
            <path class="cls-9" d="M27.69,16.11s0,0,0,.02c.27,1.62,1.13,2.91,2.44,3.41.23.09.48.15.72.18h0c2.19.29,4.64-1.58,5.76-4.53.91-2.39.69-4.82-.39-6.32h0s0,0,0,0c-.41-.56-.93-.99-1.57-1.23-2.09-.79-4.64.67-6.05,3.35-.17.32-.32.65-.45,1-.55,1.44-.69,2.89-.48,4.14Z"/>
            <path class="cls-16" d="M27.7,16.13c.27,1.62,1.13,2.91,2.44,3.41,2.34.89,5.25-1.06,6.5-4.35,1.25-3.29.36-6.67-1.97-7.56-2.09-.79-4.64.67-6.05,3.35,0,0,2.78-2.38,4.62-.73,1.83,1.64,1.92,5.17-.16,7.33-2.1,2.16-4.82.72-5.38-1.44Z"/>
          </g>
          <g>
            <path class="cls-6" d="M24.11,16.03s0,0-.01.02c-.35,1.6-1.26,2.86-2.59,3.29-.23.08-.49.12-.73.15h0c-2.2.19-4.56-1.78-5.56-4.79-.8-2.43-.47-4.85.68-6.3h0s0,0,0,0c.43-.54.97-.95,1.62-1.16,2.12-.7,4.6.88,5.89,3.62.16.32.29.67.4,1.02.48,1.46.56,2.92.3,4.15Z"/>
            <path class="cls-16" d="M24.1,16.04c-.35,1.6-1.26,2.86-2.59,3.29-2.38.78-5.2-1.29-6.3-4.64-1.1-3.35-.06-6.68,2.3-7.47,2.12-.7,4.6.88,5.89,3.62,0,0-2.67-2.5-4.58-.94-1.9,1.56-2.15,5.08-.16,7.33,2,2.25,4.79.93,5.44-1.2Z"/>
          </g>
          <g>
            <path class="cls-5" d="M13.71,23.83s0,.01,0,.02c.22,1.31-.09,2.52-.95,3.25-.15.13-.33.24-.5.33h0c-1.59.81-3.96.04-5.6-1.92-1.33-1.58-1.81-3.49-1.39-4.92h0s0-.01,0-.01c.16-.54.44-1,.87-1.35,1.38-1.16,3.71-.72,5.5.94.22.2.41.41.61.64.8.95,1.29,2.02,1.47,3.02Z"/>
            <path class="cls-16" d="M13.71,23.85c.22,1.31-.09,2.52-.95,3.25-1.55,1.3-4.28.59-6.11-1.59-1.83-2.18-2.06-4.99-.52-6.29,1.38-1.16,3.71-.72,5.5.94,0,0-2.75-1.07-3.72.67-.96,1.74-.09,4.45,2.08,5.54,2.17,1.09,3.87-.74,3.71-2.53Z"/>
          </g>
          <g>
            <path class="cls-4" d="M38.38,24.39s0,.01,0,.02c-.28,1.3-.03,2.52.81,3.29.15.14.32.25.49.35h0c1.55.88,3.95.22,5.68-1.66,1.4-1.52,1.97-3.41,1.61-4.86h0s0-.01,0-.01c-.13-.54-.4-1.02-.8-1.39-1.33-1.22-3.68-.89-5.54.69-.22.19-.43.39-.64.61-.84.91-1.38,1.96-1.6,2.96Z"/>
            <path class="cls-16" d="M38.38,24.4c-.28,1.3-.03,2.52.81,3.29,1.49,1.37,4.25.78,6.18-1.31,1.93-2.09,2.28-4.89.8-6.26-1.33-1.22-3.68-.89-5.54.69,0,0,2.8-.94,3.68.84.88,1.78-.11,4.45-2.32,5.44-2.22.99-3.83-.91-3.6-2.7Z"/>
          </g>
          <g>
            <path class="cls-3" d="M13.55,37.21c.88,1.76,2.05,2.58,3.3,2.86h0c1.87.41,3.89-.4,5.42-1.11,2.55-1.19,5.78-1.11,8.27.19,1.33.7,3.07,1.49,4.77,1.42,0,0,0,0,0,0,1.47-.05,2.91-.77,4.03-2.77,1.2-2.15.81-3.77-.09-4.98h0c-.91-1.23-2.33-2.04-3.2-2.56-.19-.12-.36-.31-.53-.56h0c-1.3-1.94-2.06-7.29-8.74-7.4-8.27-.48-7.93,5.72-9.3,7.29h0c-.09.1-.19.19-.3.25-.55.3-1.33.7-2.07,1.25t-.01.02c-1.63,1.2-3.07,3.11-1.55,6.12Z"/>
            <path class="cls-16" d="M13.55,37.21c2.21,4.39,6.18,2.95,8.72,1.75,2.55-1.19,5.78-1.11,8.27.19,2.5,1.31,6.39,2.93,8.8-1.36,1.2-2.15.81-3.77-.09-4.98.03.22.58,4.03-3.05,4.97-3.73.97-5.42-2.97-9.7-3.1-4.27-.13-5.79,2.91-8.25,3.06-2.46.14-6.13-3.01-3.16-6.65-1.63,1.2-3.07,3.11-1.55,6.12Z"/>
            <path class="cls-15" d="M17.48,29.57c10.91,5.51,18.04.11,18.04.11h0c-1.3-1.94-2.06-7.29-8.74-7.4-8.27-.48-7.93,5.72-9.3,7.29Z"/>
          </g>
        </g>
        <g>
          <path class="cls-13" d="M58.77,8.76c-.06.66-.49,1.59-.99,2-1.89,1.54-3.2.76-3.2.76.04.06.38.38.43.44.71.72,2.18.43,3.27-.66,1.1-1.08,1.41-2.55.7-3.27-.05-.05-.37-.4-.43-.44,0,0,.27.63.22,1.17Z"/>
          <g>
            <path class="cls-18" d="M54.98,11.66c.13.14.25.3.39.44.06.06.12.12.17.18.11.03.22.06.34.07-.03-.03-.07-.07-.1-.11-.18-.17-.37-.33-.53-.53-.11,0-.2-.03-.28-.05Z"/>
            <path class="cls-18" d="M57.83,11.69c.08-.06.16-.12.23-.18-.19-.18-.4-.33-.57-.52-.06.05-.13.08-.19.13.18.19.36.38.54.58Z"/>
            <path class="cls-18" d="M56.48,12.11c.05.05.1.11.14.17.08-.02.16-.04.24-.07-.2-.2-.41-.4-.61-.6-.07.02-.15.04-.21.05.15.15.29.3.44.46Z"/>
            <path class="cls-18" d="M56.08,12.21s.08.08.11.13c.06,0,.12,0,.18-.02-.19-.21-.37-.44-.57-.63-.09.01-.17.02-.25.02.16.19.35.33.52.5Z"/>
            <path class="cls-18" d="M57.08,12.12c.06-.02.12-.05.18-.08-.2-.18-.4-.37-.57-.6-.07.03-.14.06-.21.08.2.2.4.4.6.59Z"/>
            <path class="cls-18" d="M57.45,11.94c.07-.04.14-.08.21-.13-.18-.2-.36-.39-.54-.58-.08.05-.16.09-.24.13.17.22.37.4.57.58Z"/>
            <path class="cls-18" d="M57.64,10.87c.16.19.37.34.56.51.03-.03.06-.05.09-.08.04-.03.07-.07.1-.11-.17-.18-.33-.36-.51-.52-.03.03-.07.07-.1.1-.05.04-.09.07-.14.11Z"/>
            <path class="cls-18" d="M58.5,9.72c.18.18.37.36.55.53.04-.08.07-.16.11-.24-.03-.03-.06-.06-.09-.09-.16-.15-.31-.3-.47-.46-.03.08-.06.16-.1.25Z"/>
            <path class="cls-18" d="M58.67,9.26c.18.18.37.35.55.53,0,0,.01.02.02.02.02-.08.05-.15.06-.23-.05-.06-.11-.12-.16-.18-.13-.13-.27-.26-.4-.39-.02.08-.04.16-.06.25Z"/>
            <path class="cls-18" d="M58.77,8.76s0,0,0,0c.14.15.3.28.45.43.04.05.09.09.13.14.01-.1.02-.19.02-.28-.12-.12-.23-.24-.35-.35-.09-.08-.17-.16-.24-.24,0,.1,0,.2,0,.3Z"/>
            <path class="cls-18" d="M59.25,8.63s.06.06.09.09c-.02-.12-.06-.24-.11-.34-.2-.19-.41-.38-.59-.58.02.07.05.15.07.25.15.22.35.4.55.59Z"/>
            <path class="cls-18" d="M58.83,10.64c.04-.06.08-.13.12-.2-.18-.17-.36-.35-.55-.53-.04.08-.08.15-.12.22.18.17.36.33.54.5Z"/>
            <path class="cls-18" d="M58.53,11.03c.06-.07.12-.15.18-.22-.18-.17-.36-.33-.54-.49-.05.07-.1.13-.15.19.18.16.34.35.51.52Z"/>
          </g>
          <path class="cls-7" d="M55.28,8.25c-1.1,1.09-1.41,2.55-.7,3.27.71.72,2.18.42,3.28-.66,1.1-1.08,1.41-2.55.7-3.27-.71-.72-2.18-.42-3.28.66Z"/>
          <path class="cls-2" d="M55.5,8.47c-.88.86-1.19,1.97-.7,2.46.49.49,1.59.19,2.47-.68.88-.87,1.19-1.97.7-2.46-.49-.49-1.59-.19-2.47.68Z"/>
          <path class="cls-11" d="M55.66,8.63c.83-.82,1.86-1.13,2.38-.75-.02-.03-.05-.06-.07-.09-.49-.49-1.59-.19-2.47.68-.88.86-1.19,1.97-.7,2.46.03.03.06.05.09.08-.38-.53-.05-1.55.78-2.37Z"/>
          <g>
            <path class="cls-10" d="M56.82,8.72s.06-.02.09-.03c.03,0,.05-.02.08-.03.02,0,.04-.02.06-.03.03-.02.05-.04.07-.06.02-.02.04-.05.06-.08l.14-.22-.11-.11c-.09.02-.31.21-.44.27l.05-.26-.11-.11s-.17.3-.2.33c-.03.04-.04.07-.05.09l-.03.15c-.14.1-.26.19-.37.29-.11.1-.2.2-.27.29-.08.1-.13.19-.18.27-.04.09-.12.23-.12.29,0,0,.07.08.11.11.04.03.09.04.15.04.06,0,.14-.02.22-.06.08-.03.17-.07.25-.11l-.09.5c-.05.03-.1.04-.14.06-.04.01-.08.02-.11.03-.04,0-.07.02-.1.03-.03,0-.05.02-.08.04-.03.02-.05.04-.08.06-.02.03-.33.22-.34.24l.11.11c.08,0,.18-.02.3-.06.12-.04.25-.1.38-.17l-.16.17.11.11.2-.13s.08-.06.1-.09c.03-.03.04-.06.05-.09l.03-.17c.14-.1.26-.2.37-.3.11-.1.2-.2.28-.3.08-.1.13-.2.18-.29.04-.09.06-.18.07-.26,0-.05,0-.09-.02-.12-.02-.03-.04-.05-.07-.06-.03,0-.07,0-.11,0-.04,0-.09.02-.14.03-.05.02-.1.04-.16.06-.06.02-.11.05-.17.07l.09-.48s.07-.03.1-.04ZM56.09,9.34s0-.05.02-.07c.01-.03.03-.05.05-.08.02-.03.06-.06.09-.1.04-.03.08-.07.14-.12l-.08.41c-.07.02-.12.04-.17.04-.04,0-.06-.02-.06-.07ZM56.78,9.65c0,.13-.11.27-.3.41l.08-.44c.07-.03.12-.04.17-.04.04,0,.06.02.06.07Z"/>
            <path class="cls-1" d="M56.71,8.62s.06-.02.09-.03c.03-.01.05-.02.08-.03.02-.01.04-.02.06-.03.03-.02.05-.04.07-.06.02-.02.04-.05.06-.09l.14-.22c-.06,0-.14,0-.22.03-.09.02-.19.07-.32.13l.05-.26-.2.13s-.07.06-.1.09c-.03.04-.04.07-.05.09l-.03.15c-.14.09-.26.19-.37.29-.11.1-.2.2-.27.29-.08.1-.13.19-.18.27-.04.09-.06.16-.07.22,0,.09.01.15.05.18.04.03.09.04.15.04.07,0,.14-.03.22-.06.08-.03.17-.07.25-.11l-.09.51c-.05.02-.1.04-.14.06-.04.01-.08.02-.11.03-.03,0-.06.02-.09.03-.03,0-.06.02-.09.04-.03.02-.05.04-.08.06-.02.03-.05.05-.06.07l-.18.28c.08,0,.18-.02.3-.06.12-.04.25-.1.38-.17l-.05.28.2-.13s.08-.06.1-.09c.03-.04.04-.07.05-.09l.03-.17c.14-.1.26-.2.37-.3.11-.1.2-.2.28-.3.07-.1.14-.2.18-.29.04-.09.06-.18.07-.26,0-.05,0-.09-.02-.12-.02-.03-.04-.05-.07-.05-.03-.01-.07-.01-.11,0-.04,0-.09.02-.14.04-.05.02-.1.04-.16.06-.06.02-.11.05-.17.07l.09-.48s.07-.03.1-.04ZM55.98,9.23s0-.04.02-.07c.01-.03.03-.06.05-.09.02-.03.05-.06.09-.1.04-.04.08-.07.14-.11l-.08.41c-.07.02-.13.04-.17.04-.04,0-.06-.02-.06-.07ZM56.68,9.54c0,.13-.11.26-.31.41l.08-.44c.07-.02.12-.04.17-.04.04,0,.06.02.06.07Z"/>
          </g>
        </g>
      </g>
    </g>
  </g>
</svg>