<?xml version="1.0" encoding="UTF-8"?>
<svg id="Layer_2" data-name="Layer 2" xmlns="http://www.w3.org/2000/svg" xmlns:xlink="http://www.w3.org/1999/xlink" viewBox="0 0 50.67 26.57">
  <defs>
    <style>
      .cls-1 {
        fill: url(#linear-gradient-2);
      }

      .cls-2 {
        fill: url(#linear-gradient);
      }

      .cls-3 {
        fill: #141414;
      }

      .cls-4 {
        fill: #1a1a1a;
      }
    </style>
    <linearGradient id="linear-gradient" x1="36.43" y1="3.64" x2="36.43" y2="-5.11" gradientTransform="translate(5.4 6.69) rotate(2.4)" gradientUnits="userSpaceOnUse">
      <stop offset="0" stop-color="#6d4f51"/>
      <stop offset=".42" stop-color="#4d3a3b"/>
      <stop offset="1" stop-color="#1a1a1a"/>
    </linearGradient>
    <linearGradient id="linear-gradient-2" x1="263.64" y1="154.49" x2="263.64" y2="145.74" gradientTransform="translate(58.87 -280.78) rotate(129.19) scale(1 -1)" xlink:href="#linear-gradient"/>
  </defs>
  <g id="Layer_1-2" data-name="Layer 1">
    <g>
      <g>
        <path class="cls-2" d="M43.85,13.49l-4.54-.19c-1.17-.05-2.3-.43-3.27-1.11-1.72-1.21-2.69-3.18-2.6-5.26l.03-.65c.14-3.29,2.83-5.88,6.12-5.88.09,0,.17,0,.26,0l4.54.19c1.64.07,3.15.77,4.26,1.98,1.11,1.21,1.68,2.77,1.61,4.41l-.03.65c-.1,2.34-1.5,4.39-3.65,5.34-.77.35-1.63.53-2.48.53-.09,0-.17,0-.26,0Z"/>
        <path class="cls-3" d="M39.59.81c.08,0,.16,0,.24,0l4.54.19c3.16.13,5.61,2.8,5.48,5.96l-.03.65c-.09,2.25-1.47,4.13-3.4,4.98-.7.32-1.49.49-2.32.49-.08,0-.16,0-.24,0l-4.54-.19c-1.14-.05-2.18-.43-3.05-1.04-1.54-1.08-2.51-2.89-2.43-4.91l.03-.65c.13-3.08,2.67-5.49,5.72-5.49M39.59,0h0c-3.51,0-6.38,2.75-6.53,6.26l-.03.65c-.09,2.22.94,4.32,2.77,5.61,1.04.72,2.24,1.13,3.49,1.19l4.54.19c.09,0,.18,0,.27,0,.91,0,1.83-.2,2.65-.57,2.29-1.01,3.78-3.19,3.88-5.69l.03-.65c.15-3.6-2.66-6.65-6.26-6.81L39.87,0c-.09,0-.18,0-.28,0h0Z"/>
      </g>
      <polygon class="cls-4" points="39.11 12.86 39.86 7.84 40.19 12.9 39.11 12.86"/>
      <polygon class="cls-4" points="43.29 13.03 44.04 8.01 44.37 13.08 43.29 13.03"/>
    </g>
    <g>
      <g>
        <path class="cls-1" d="M7.01,26.17c-1.4,0-2.76-.49-3.85-1.37l-.5-.41C.04,22.25-.35,18.38,1.78,15.76l2.87-3.52c1.17-1.43,2.9-2.26,4.76-2.26,1.41,0,2.78.49,3.87,1.38l.5.41c1.62,1.32,2.44,3.35,2.21,5.44-.14,1.18-.6,2.28-1.34,3.18l-2.87,3.52c-.59.73-1.36,1.32-2.21,1.7-.79.37-1.68.56-2.56.56h0Z"/>
        <path class="cls-3" d="M9.41,10.38c1.27,0,2.55.42,3.61,1.29l.5.41c1.57,1.28,2.27,3.21,2.06,5.08-.12,1.06-.53,2.09-1.25,2.97l-2.87,3.52c-.57.7-1.29,1.24-2.06,1.59-.75.35-1.57.52-2.39.52-1.26,0-2.54-.42-3.59-1.28l-.5-.41c-2.45-2-2.82-5.61-.82-8.06l2.87-3.52c1.13-1.39,2.78-2.11,4.44-2.11M9.41,9.57c-1.98,0-3.82.88-5.07,2.41l-2.87,3.52c-2.28,2.79-1.86,6.92.94,9.2l.5.41c1.16.94,2.62,1.47,4.11,1.47.94,0,1.88-.21,2.73-.6.9-.41,1.72-1.03,2.35-1.81l2.87-3.52c.79-.97,1.28-2.14,1.43-3.39.25-2.23-.63-4.39-2.36-5.8l-.5-.41c-1.16-.95-2.63-1.47-4.13-1.47h0Z"/>
      </g>
      <polygon class="cls-4" points="13.77 20.77 10.21 17.17 14.46 19.94 13.77 20.77"/>
      <polygon class="cls-4" points="11.13 24.02 7.56 20.42 11.81 23.18 11.13 24.02"/>
    </g>
  </g>
</svg>